<svg viewBox="0 0 100 99" fill="none" xmlns="http://www.w3.org/2000/svg">
<path d="M84.5553 4.02418C85.4682 3.92126 86.3094 4.17886 87.1058 4.56555C87.7981 4.9116 88.4095 5.39963 88.9001 5.99775C89.0398 6.16406 89.1027 6.39258 89.2238 6.57924C89.2849 6.67383 89.3774 6.74384 89.4852 6.77695C89.5317 6.78799 89.6266 6.65541 89.6773 6.57401C90.143 5.81807 90.7217 5.2046 91.5047 4.7365C92.5526 4.11199 93.6838 3.98057 94.8429 3.95964C95.6754 3.94452 96.5213 4.0329 97.2618 4.45564C98.3097 5.05283 99.116 5.88727 99.5829 7.0235C99.9846 8.00156 100.077 9.00056 99.9421 10.0472C99.8047 11.1148 99.4286 12.0917 98.974 13.0506C98.5461 13.9537 97.9226 14.7137 97.2857 15.4789C96.4235 16.5192 95.4105 17.3978 94.4173 18.298C93.7327 18.9173 92.9654 19.4476 92.2161 19.9918C91.6153 20.428 90.9936 20.842 90.3671 21.2351C89.5676 21.7348 88.7578 22.2168 87.9378 22.6812C87.1769 23.1144 86.3985 23.5168 85.6289 23.9338C85.5869 23.9564 85.5543 24 85.5124 24.0157C85.428 24.0466 85.3104 24.1099 85.258 24.0774C85.1858 24.0332 85.1416 23.9157 85.123 23.8221C85.0991 23.7006 85.1165 23.5715 85.1119 23.4453C85.0839 22.6353 85.1305 21.8131 85.0065 21.0182C84.8741 20.1318 84.5824 19.2767 84.1455 18.4939C83.6629 17.6362 82.9858 16.9588 82.3623 16.2261C81.7772 15.5365 81.2137 14.8265 80.674 14.1025C80.3198 13.625 79.9933 13.1276 79.696 12.6128C79.1871 11.7405 79.0113 10.7904 78.9869 9.78615C78.9599 8.86567 79.1424 7.95108 79.5207 7.1113C79.7425 6.61994 80.1105 6.18092 80.4679 5.76864C80.7451 5.44736 81.0694 5.16976 81.4297 4.94526C81.9321 4.63474 82.4333 4.30155 83.0481 4.21549C83.5511 4.14455 84.0483 4.03232 84.5478 3.9387C84.5501 3.96778 84.553 3.99569 84.5553 4.02418Z" fill="white"/>
<path d="M94.2776 64.3728C94.4063 64.4612 94.5157 64.5798 94.649 64.6211C95.4955 64.8856 96.1044 65.4712 96.5958 66.1545C97.0262 66.7372 97.3302 67.4032 97.4883 68.11C97.6501 68.87 97.8958 69.6126 98.0891 70.3662C98.2282 70.9029 98.3219 71.4512 98.4756 71.9839C98.7824 73.055 98.9414 74.1732 99.502 75.1669C99.764 75.6321 99.5847 76.1555 99.5928 76.6521C99.5928 76.7056 99.4449 76.8091 99.3646 76.8102C98.3167 76.8219 97.2688 76.8248 96.2209 76.8102C96.1277 76.8102 95.9787 76.6747 95.9531 76.5776C95.7924 75.9659 95.6719 75.3437 95.5135 74.7308C95.4058 74.3162 95.2574 73.9115 95.1258 73.5027C95.1113 73.4568 95.081 73.4155 95.0711 73.369C94.9692 72.8706 94.8801 72.3688 94.7654 71.8734C94.6665 71.4437 94.5396 71.0203 94.4231 70.5941C94.2968 70.1318 94.1542 69.6736 94.0424 69.2078C93.8677 68.4787 93.7391 67.7373 93.5377 67.0162C93.4433 66.679 93.2466 66.362 93.0574 66.0626C92.8024 65.6637 92.371 65.5166 91.9396 65.3933C91.7446 65.3351 91.645 65.4334 91.6404 65.6317C91.6404 65.6997 91.6369 65.7672 91.6369 65.8352C91.6369 68.5775 91.645 71.3204 91.6293 74.0627C91.6293 74.5529 91.8581 74.8692 92.2295 75.103C92.807 75.4664 93.0527 76.0334 92.8326 76.6596C92.8047 76.7381 92.6429 76.812 92.5416 76.8155C92.0572 76.8323 91.5717 76.8236 91.0861 76.8242C89.6115 76.8242 88.1363 76.8242 86.6616 76.8312C86.3921 76.8312 86.2739 76.755 86.2832 76.4677C86.3187 75.421 86.1243 75.6618 87.0756 74.9367C87.2677 74.7907 87.4074 74.5104 87.4627 74.268C87.5343 73.9528 87.5064 73.6132 87.5064 73.2841C87.5064 67.2366 87.5085 61.1891 87.5128 55.1416C87.5182 54.9733 87.4855 54.8058 87.4171 54.6518C87.3488 54.4977 87.2466 54.3611 87.118 54.252C87.0503 54.1866 87.0089 54.0987 87.0016 54.0048C86.9894 53.4431 86.9946 52.8808 86.9894 52.3185C86.9894 52.1342 87.0802 52.0481 87.2554 52.0499C88.6806 52.0627 90.1081 52.0574 91.5309 52.1028C92.0832 52.1259 92.6314 52.2068 93.1668 52.3441C93.8998 52.5249 94.6222 52.7604 95.3366 53.0023C95.7237 53.1332 96.119 53.2815 96.4578 53.5024C96.9236 53.806 97.3934 54.1351 97.7537 54.5491C98.145 54.9968 98.4627 55.5035 98.6951 56.0505C99.2482 57.3804 99.2912 58.7602 98.967 60.168C98.8599 60.6332 98.7463 61.0833 98.5234 61.5055C98.0733 62.3521 97.4172 62.9766 96.5783 63.4587C95.9393 63.835 95.2383 64.0945 94.5081 64.2251C94.4608 64.2338 94.415 64.249 94.3719 64.2704C94.3475 64.2774 94.3335 64.3071 94.2776 64.3728ZM92.1969 54.6898C91.6322 54.7369 91.6322 54.7369 91.6322 55.2952C91.6322 57.7351 91.6322 60.1748 91.6322 62.6144C91.6322 62.7307 91.6341 62.8469 91.638 62.9632C91.6427 63.1418 91.7277 63.2429 91.9128 63.2098C92.3861 63.1261 92.8815 63.0935 93.3228 62.9254C93.6964 62.7711 94.03 62.5341 94.2986 62.2323C94.8883 61.5816 95.0501 60.7408 95.1328 59.9011C95.2492 58.7329 95.1741 57.5798 94.8371 56.4389C94.6269 55.726 94.1088 55.3184 93.5312 55.0073C93.1441 54.7974 92.6463 54.7887 92.1969 54.6898Z" fill="white"/>
<path d="M34.984 64.7135C35.0778 63.343 35.1412 61.9706 35.2786 60.6053C35.345 59.9482 35.5464 59.3034 35.6949 58.655C35.7828 58.2712 35.866 57.8839 35.986 57.5106C36.1606 56.9716 36.3353 56.4261 36.5809 55.9162C36.8306 55.3862 37.1303 54.8811 37.4757 54.4078C38.0853 53.5862 38.8374 52.9541 39.8161 52.5401C40.7813 52.133 41.7314 52.1731 42.7089 52.3005C42.9377 52.3302 43.1554 52.468 43.3708 52.5715C43.8732 52.8128 44.4012 53.0128 44.7849 53.4495C44.9595 53.6513 45.1825 53.817 45.3385 54.031C45.6296 54.434 45.905 54.8521 46.1594 55.28C46.3877 55.6478 46.5866 56.033 46.7544 56.432C46.9861 56.9915 47.1787 57.5664 47.3307 58.1526C47.5182 58.9196 47.6597 59.7005 47.7755 60.482C47.8704 61.1217 47.9141 61.7712 47.9537 62.4178C48.0119 63.3912 48.0736 64.3658 48.0852 65.3404C48.091 65.8777 48.0049 66.4173 47.9478 66.9546C47.8407 67.9739 47.7464 68.995 47.6026 70.0091C47.5316 70.5121 47.3808 71.007 47.2353 71.4966C47.0897 71.9862 46.9349 72.4962 46.7235 72.9689C46.4621 73.5556 46.1414 74.1168 45.8404 74.6849C45.4433 75.4292 44.8018 75.9642 44.1445 76.4392C43.666 76.7852 43.089 76.9911 42.462 77.087C41.7332 77.1975 41.0241 77.1545 40.326 77.0289C39.849 76.9449 39.3971 76.7545 39.0039 76.4718C38.3053 75.9485 37.6329 75.367 37.2178 74.561C37.0379 74.2121 36.7795 73.8993 36.6124 73.544C36.389 73.0649 36.1946 72.5729 36.0302 72.0705C35.8969 71.6687 35.8212 71.2471 35.724 70.8331C35.5854 70.2423 35.4496 69.6509 35.3165 69.059C35.2903 68.9555 35.2724 68.8501 35.2629 68.7438C35.1692 67.4029 35.0766 66.0655 34.984 64.7135ZM39.3975 64.5868H39.3806C39.3806 66.1847 39.3806 67.7849 39.3806 69.3817C39.3806 69.662 39.4016 69.9428 39.4289 70.2214C39.5005 70.9424 39.5611 71.6646 39.6618 72.3816C39.7625 73.0986 39.872 73.8179 40.3202 74.422C40.4454 74.5913 40.5706 74.7872 40.7435 74.8872C41.6551 75.4251 42.5331 75.0169 42.9941 74.1964C43.3108 73.6318 43.379 72.9858 43.4779 72.3601C43.5598 71.8146 43.608 71.2647 43.6223 70.7133C43.6706 69.2718 43.7166 67.8297 43.7253 66.3876C43.7382 64.2856 43.7189 62.1829 43.7096 60.0808C43.7131 59.8291 43.6993 59.5776 43.6683 59.3278C43.5117 58.2288 43.5775 57.1059 43.2765 56.0191C43.0908 55.3469 42.869 54.7648 42.189 54.4043C41.665 54.1264 40.7336 54.3531 40.4489 54.7747C40.2044 55.1382 39.9529 55.5464 39.8795 55.9656C39.6705 57.1641 39.472 58.3741 39.4138 59.5871C39.3393 61.2519 39.3975 62.9202 39.3975 64.5868Z" fill="white"/>
<path d="M34.0549 69.9899C34.0549 70.9593 34.0549 71.928 34.0549 72.8974C34.0549 73.3329 34.0828 73.7376 34.3023 74.1517C34.7098 74.9181 34.5008 75.5705 33.7586 75.9874C33.2287 76.2943 32.6722 76.553 32.0959 76.7602C31.6174 76.9254 31.0981 76.9841 30.5921 77.0544C29.5396 77.1998 28.4777 77.2138 27.4345 77.0271C26.8842 76.9184 26.3522 76.7322 25.8544 76.4741C24.8601 75.9752 24.0957 75.1948 23.4955 74.2691C23.2463 73.8836 23.0583 73.455 22.8801 73.0282C22.6445 72.4825 22.4382 71.9246 22.2619 71.357C22.0999 70.8134 21.9777 70.2588 21.8963 69.6975C21.7629 68.7711 21.6762 67.8367 21.5697 66.9063C21.5697 66.8871 21.5598 66.8685 21.5586 66.8482C21.5173 65.8184 21.4026 64.7845 21.4544 63.7593C21.5126 62.5661 21.6913 61.3752 21.8706 60.193C21.9981 59.3563 22.1943 58.5282 22.3998 57.706C22.4825 57.3769 22.6735 57.0751 22.8138 56.7599C22.982 56.3814 23.1444 56.0005 23.3168 55.6237C23.7388 54.7026 24.3914 53.9467 25.1413 53.2937C25.515 52.968 26.0436 52.8285 26.4686 52.5488C26.8587 52.2953 27.2837 52.2476 27.7127 52.2406C28.2815 52.2221 28.8508 52.2503 29.415 52.3249C29.794 52.3831 30.1555 52.5726 30.5211 52.7192C30.9816 52.9052 31.4008 52.8122 31.7093 52.4598C32.178 51.9243 32.7805 52.0638 33.3569 52.0644C33.4186 52.0644 33.5275 52.2389 33.5315 52.3354C33.5537 52.6924 33.5408 53.0518 33.5408 53.41C33.5408 55.0191 33.5408 56.6279 33.5408 58.2363C33.5408 58.5852 33.5082 58.6137 33.156 58.6143C32.8259 58.6143 32.4964 58.6184 32.1663 58.6143C31.8223 58.6114 31.4794 58.3137 31.3897 57.9863C31.282 57.5909 31.1569 57.2001 31.0212 56.8123C30.8972 56.45 30.7685 56.0877 30.6195 55.7353C30.3372 55.0666 29.9331 54.4747 29.188 54.3026C28.4835 54.1397 27.7907 54.2363 27.2505 54.7968C26.8667 55.2064 26.5933 55.7066 26.4558 56.2505C26.0955 57.5758 26.0099 58.9335 25.9691 60.2977C25.9173 62.0201 25.8277 63.7424 25.8236 65.4648C25.8207 66.6138 25.9243 67.764 26.0076 68.9113C26.0704 69.769 26.1496 70.6273 26.2736 71.4774C26.347 71.9798 26.5309 72.4659 26.6491 72.9619C26.7562 73.4143 26.9454 73.8185 27.2755 74.1499C27.7191 74.5942 28.1866 74.9989 28.8817 74.8925C29.0227 74.8737 29.1556 74.8159 29.2654 74.7256C29.6898 74.3343 29.9518 73.8877 29.9413 73.2614C29.9151 71.6827 29.9547 70.1033 29.95 68.524C29.9396 68.3448 29.8721 68.1737 29.7573 68.0356C29.5879 67.8291 29.3498 67.6809 29.1751 67.4779C29.066 67.3425 28.9907 67.183 28.9557 67.0127C28.919 66.847 28.9609 66.6638 28.9464 66.4894C28.9242 66.2283 29.022 66.1225 29.2922 66.1236C30.767 66.1302 32.2418 66.1302 33.7167 66.1236C34.0171 66.1236 34.066 66.2795 34.066 66.5307C34.0607 67.6838 34.066 68.8369 34.066 69.9899H34.0549Z" fill="white"/>
<path d="M27.0595 6.89324C27.036 6.95291 27.0165 7.01411 27.0013 7.07641C26.9076 7.6579 26.822 8.23939 26.723 8.82088C26.5944 9.571 26.45 10.3188 26.3237 11.0695C26.2072 11.7463 26.1257 12.4278 26.0017 13.1047C25.8806 13.7653 25.7264 14.42 25.5861 15.0765C25.5744 15.1347 25.5575 15.1893 25.5488 15.2469C25.4492 15.8953 25.3602 16.5454 25.2496 17.192C25.1465 17.7915 25.0208 18.3869 24.9055 18.9841C24.8764 19.1359 24.8473 19.2882 24.8205 19.4406C24.6738 20.2774 24.5294 21.1147 24.3815 21.9515C24.3109 22.35 24.2374 22.7479 24.1609 23.1453C24.119 23.3598 23.981 23.436 23.7639 23.4436C22.9447 23.468 22.9331 23.4767 22.6944 22.7027C22.6158 22.4481 22.6269 22.1672 22.578 21.902C22.4726 21.3235 22.3451 20.7478 22.245 20.1686C22.1169 19.4464 22.0174 18.719 21.8794 17.9985C21.7536 17.3414 21.5935 16.6907 21.4492 16.0366C21.4363 15.9784 21.4241 15.9232 21.4148 15.8662C21.2361 14.7526 21.0684 13.6373 20.8745 12.5267C20.7581 11.8731 20.5899 11.23 20.4711 10.577C20.364 9.98792 20.2999 9.39132 20.2016 8.80052C20.1626 8.56793 20.0694 8.34173 20.024 8.10855C19.9763 7.86258 19.9576 7.61196 19.9233 7.36367C19.9035 7.2212 19.879 7.07932 19.8569 6.93685L19.7358 6.94093C19.7178 7.12293 19.6846 7.30494 19.684 7.48752C19.6794 9.92977 19.6774 12.372 19.6782 14.8143C19.6782 17.1495 19.6852 19.4848 19.6724 21.82C19.6724 22.2666 19.8365 22.6178 20.0886 22.9615C20.1605 23.0692 20.1889 23.2001 20.1678 23.3278C20.1561 23.386 19.9821 23.4441 19.8814 23.4441C18.9598 23.4517 18.0382 23.4482 17.1172 23.4441C16.9484 23.4441 16.7446 23.4831 16.6847 23.2523C16.6427 23.0894 16.8803 22.7609 17.0538 22.712C17.7524 22.5149 17.9951 22.1852 17.9951 21.4572C17.9951 16.5541 18.0015 11.6516 17.9899 6.74845C17.9899 6.32455 17.764 5.95937 17.3949 5.7134C17.2893 5.643 17.1786 5.5806 17.0637 5.52675C16.8529 5.42906 16.7726 5.26798 16.7726 5.03888C16.7726 4.15269 16.7283 4.25619 17.5224 4.25445C18.8416 4.25096 20.1608 4.25445 21.4812 4.25445C21.8631 4.25445 21.8776 4.27189 21.8928 4.63649C21.899 4.73307 21.911 4.82919 21.9289 4.92432C22.0767 5.80935 22.2124 6.6967 22.3783 7.57824C22.5093 8.27602 22.6769 8.96974 22.8283 9.6652C22.8324 9.68439 22.8394 9.70241 22.8423 9.72335C22.9389 10.3909 23.0309 11.0608 23.1334 11.726C23.2061 12.2034 23.2888 12.6791 23.3703 13.1547C23.4803 13.7943 23.5875 14.4299 23.7103 15.0649C23.7382 15.2085 23.8267 15.3405 23.885 15.4778L23.9723 15.4719C23.9973 15.3271 24.0229 15.1812 24.0474 15.037C24.1192 14.6106 24.1908 14.1853 24.2622 13.7612C24.2779 13.6658 24.3047 13.5716 24.3163 13.4757C24.4118 12.6889 24.491 11.9004 24.6016 11.1154C24.7076 10.3508 24.8502 9.59135 24.9614 8.82727C25.0778 8.02424 25.1762 7.21829 25.2822 6.41352C25.3643 5.79132 25.4347 5.16739 25.5395 4.54868C25.5575 4.44518 25.7089 4.32423 25.8236 4.28643C25.9744 4.23642 26.1496 4.25387 26.3144 4.25387C27.5561 4.25387 28.7979 4.26201 30.0403 4.25387C30.3034 4.25387 30.4163 4.33818 30.3994 4.60625C30.3884 4.78884 30.4064 4.97375 30.4123 5.15808C30.4278 5.38804 30.3582 5.61568 30.2166 5.79772C30.0624 6.0188 29.9698 6.27689 29.9483 6.54551C29.9052 7.03629 29.9279 7.53404 29.9273 8.02714C29.9273 12.5814 29.9259 17.1364 29.9232 21.6921C29.9232 22.0916 30.0688 22.4085 30.2982 22.7283C30.4082 22.8824 30.3849 23.1412 30.3919 23.3528C30.3919 23.3872 30.2388 23.4587 30.1555 23.4593C28.9431 23.4686 27.7306 23.4715 26.5181 23.468C26.45 23.468 26.3324 23.4255 26.3248 23.3866C26.3203 23.3461 26.3242 23.3051 26.3362 23.2662C26.3483 23.2273 26.3682 23.1913 26.3947 23.1604C26.5856 22.9609 26.7865 22.7696 26.9932 22.5859C27.226 22.3759 27.2551 22.1061 27.2546 21.8177C27.2546 20.325 27.2546 18.8329 27.2546 17.3403C27.2546 14.0653 27.2534 10.7896 27.2511 7.51311C27.2511 7.30319 27.208 7.09327 27.1853 6.88336L27.0595 6.89324Z" fill="white"/>
<path d="M37.4396 38.6565C37.4396 40.9719 37.4542 43.288 37.4309 45.6041C37.4239 46.2571 37.6085 46.7508 38.1936 47.0747C38.2918 47.1348 38.3664 47.2267 38.4049 47.3352C38.4689 47.53 38.4159 47.6841 38.1674 47.687C37.9345 47.687 37.7016 47.687 37.4688 47.687C36.2852 47.687 35.1016 47.6916 33.9175 47.6835C33.8011 47.6835 33.6817 47.6044 33.5641 47.5619C33.6171 47.4177 33.6352 47.2421 33.7312 47.1369C33.8628 46.9909 34.0473 46.8886 34.2197 46.7839C34.5928 46.5571 34.7646 46.2199 34.7651 45.7954C34.7675 41.0272 34.7675 36.259 34.7651 31.4908C34.7651 30.9291 34.7605 30.9285 34.1999 30.9413C34.0931 30.9364 33.9861 30.9414 33.8802 30.9564C33.5391 31.0308 33.2451 31.1425 33.0146 31.4629C32.6024 32.035 32.5046 32.7014 32.3264 33.3457C32.21 33.7783 31.6092 34.0435 31.2203 33.8109C31.1563 33.772 31.1091 33.6516 31.1085 33.5684C31.1015 32.299 31.105 31.0297 31.1033 29.7603C31.1033 29.5783 31.1865 29.4864 31.3682 29.4998C31.5498 29.5131 31.7344 29.5387 31.9178 29.5579C32.5436 29.6161 33.1683 29.7044 33.7947 29.7207C34.8519 29.7475 35.9097 29.7289 36.9669 29.7277C38.2477 29.7277 39.5285 29.7952 40.7836 29.4701C40.8646 29.4492 41.0223 29.4666 41.0421 29.5114C41.1586 29.7725 41.3722 29.73 41.5853 29.7294C42.8463 29.7294 44.1078 29.7364 45.3694 29.7294C45.6349 29.7294 45.7466 29.8219 45.7298 30.0847C45.7204 30.2289 45.7612 30.3854 45.7193 30.5174C45.6743 30.6774 45.5871 30.8225 45.4666 30.9372C45.1674 31.1913 44.9485 31.4507 44.9502 31.8839C44.9665 36.0124 44.9648 40.141 44.9834 44.2696C44.9834 44.5684 45.0888 44.8708 45.1697 45.1651C45.2461 45.4387 45.3401 45.7071 45.4509 45.9687C45.5772 46.2658 45.8415 46.3961 46.1338 46.5013C46.8242 46.7496 47.4786 46.6223 48.0718 46.2623C48.3134 46.1158 48.505 45.825 48.629 45.5581C49.0749 44.594 49.0947 43.5567 49.0947 42.5175C49.0904 39.0674 49.0916 35.6172 49.0982 32.167C49.0982 31.7303 48.973 31.3588 48.6622 31.0715C48.4974 30.9192 48.2657 30.8389 48.0701 30.7191C47.8745 30.5994 47.7749 29.9865 47.9257 29.8289C47.9981 29.767 48.0906 29.7335 48.1859 29.7347C49.1267 29.7289 50.0677 29.73 51.0089 29.7382C51.0548 29.7396 51.0999 29.7502 51.1416 29.7693C51.1833 29.7885 51.2208 29.8159 51.2517 29.8498C51.3786 30.0243 51.3099 30.6889 51.1352 30.8349C50.8802 31.0535 50.8255 31.3204 50.8261 31.6385C50.8319 35.3988 50.8319 39.1591 50.8261 42.9193C50.8261 43.6171 50.8331 44.3108 50.6183 44.99C50.4948 45.3825 50.4558 45.8041 50.3179 46.1896C50.1333 46.7054 49.8789 47.1875 49.3928 47.5073C49.1058 47.6963 48.8618 47.9608 48.5591 48.1138C48.2368 48.2659 47.8952 48.3733 47.5438 48.433C46.7516 48.588 45.937 48.5897 45.1441 48.4382C44.1707 48.2522 43.4034 47.7643 43.0104 46.8182C42.6856 46.0361 42.5627 45.2145 42.5627 44.376C42.5593 40.2869 42.5593 36.1971 42.5627 32.1066C42.5627 31.6141 42.1552 31.0709 41.679 30.9262C41.6062 30.9035 41.5422 30.854 41.4706 30.8273C41.378 30.7924 41.282 30.7691 41.1871 30.7383C41.1603 30.836 41.1102 30.9331 41.1091 31.0291C41.1021 31.8333 41.105 32.638 41.1027 33.4422C41.1027 33.8086 41.0724 33.8353 40.7027 33.8406C40.6057 33.836 40.5085 33.8375 40.4116 33.8452C39.8737 33.9191 39.7084 33.5318 39.6548 33.1626C39.5526 32.4869 39.2897 31.8456 38.8881 31.2925C38.7134 31.0413 37.8198 30.8226 37.5636 30.9785C37.4891 31.0233 37.4472 31.1704 37.4431 31.2692C37.4321 31.9182 37.4367 32.5677 37.4362 33.2166C37.4362 35.0309 37.4373 36.8441 37.4396 38.6565Z" fill="white"/>
<path d="M11.1837 76.823C10.3396 76.823 9.49543 76.8172 8.65128 76.823C8.3829 76.8259 8.24784 76.734 8.26996 76.452C8.28456 76.3167 8.28456 76.1803 8.26996 76.045C8.20359 75.574 8.42831 75.239 8.78111 74.9826C9.1339 74.7262 9.30157 74.3883 9.26547 73.965C9.21657 73.3992 9.15486 72.8334 9.07103 72.2711C8.97148 71.6065 8.83409 70.9471 8.73046 70.283C8.69611 70.0626 8.56512 70.0167 8.38756 70.0144C8.01905 70.0097 7.64995 70.0144 7.28143 70.0144C6.44738 70.0144 5.61293 70.0144 4.7781 70.0144C4.39969 70.0144 4.41133 70.0347 4.36301 70.3976C4.27394 71.0663 4.13014 71.7274 4.04631 72.3967C3.96677 72.999 3.92574 73.6058 3.92347 74.2133C3.92347 74.4284 4.09521 74.6581 4.23028 74.8529C4.36534 75.0477 4.56444 75.2018 4.71581 75.3896C4.8022 75.4884 4.85943 75.6092 4.88114 75.7385C4.90734 75.9979 4.89046 76.2619 4.8922 76.523C4.8922 76.7056 4.82642 76.8137 4.62091 76.8137C3.17519 76.8137 1.72966 76.8156 0.28432 76.8195C0.0892924 76.8195 0.000802334 76.73 0.00778839 76.5346C0.0203059 76.3509 0.0203059 76.1665 0.00778839 75.9828C-0.0347101 75.567 0.194083 75.3518 0.524757 75.1623C0.716595 75.0424 0.881351 74.884 1.00854 74.6971C1.47428 74.0499 1.60818 73.2893 1.74382 72.5241C1.84163 71.9688 2.00696 71.4251 2.14145 70.8761C2.15542 70.818 2.17172 70.7639 2.18103 70.7069C2.27651 70.1179 2.35976 69.5271 2.46804 68.9404C2.57633 68.3536 2.71081 67.7704 2.83248 67.186C2.85228 67.0912 2.87032 66.9959 2.88546 66.8999C2.98792 66.2417 3.07292 65.5799 3.19634 64.9258C3.29182 64.417 3.44609 63.9192 3.55379 63.4139C3.68071 62.819 3.78666 62.2195 3.9031 61.6217C4.04107 60.9019 4.1773 60.1814 4.31702 59.4615C4.40143 59.0254 4.49458 58.5893 4.5755 58.1543C4.69194 57.531 4.78043 56.9018 4.91666 56.2831C5.02028 55.8109 5.19435 55.3527 5.13439 54.8579C5.11226 54.677 5.10935 54.4817 5.036 54.3206C4.80895 53.8222 5.08432 53.4734 5.54133 53.3047C6.24342 53.0465 6.95076 52.8029 7.65286 52.5488C7.87292 52.468 8.07668 52.3214 8.3014 52.2825C8.60122 52.2307 8.67981 52.347 8.73977 52.6442C8.86203 53.2448 9.00699 53.8414 9.1438 54.4398C9.15661 54.4979 9.18222 54.5503 9.19212 54.6067C9.30215 55.2329 9.39996 55.8609 9.52163 56.4843C9.62875 57.0321 9.7708 57.5728 9.88258 58.12C9.99901 58.6777 10.0892 59.2406 10.1993 59.7994C10.2351 59.9473 10.2804 60.0928 10.3349 60.2349C10.3668 60.3044 10.3946 60.3756 10.4182 60.4483C10.5113 60.9025 10.6039 61.3566 10.6866 61.8119C10.803 62.4475 10.8973 63.0865 11.0178 63.7209C11.1505 64.4187 11.2891 65.1217 11.4486 65.8143C11.5732 66.3574 11.7397 66.8906 11.8742 67.4326C11.972 67.835 12.0488 68.2426 12.1216 68.6502C12.2311 69.2579 12.323 69.8713 12.436 70.4749C12.5192 70.9203 12.6252 71.3617 12.7195 71.8048C12.7719 72.0507 12.8167 72.2985 12.8726 72.5438C13.0729 73.426 13.2493 74.3203 13.7575 75.0908C14.0643 75.556 14.1289 76.0508 14.0952 76.5829C14.0794 76.8236 13.9234 76.8242 13.7459 76.8242C12.892 76.8242 12.0382 76.8242 11.1843 76.8242L11.1837 76.823ZM6.55314 59.6348L6.41982 59.64C6.39615 59.7753 6.37247 59.911 6.3488 60.0471C6.25041 60.6286 6.16891 61.2101 6.04898 61.7875C5.92905 62.3649 5.74508 62.94 5.63098 63.5238C5.50698 64.1582 5.43188 64.8031 5.33349 65.4427C5.31428 65.5672 5.28633 65.6898 5.26188 65.8131C5.14001 66.4264 5.01873 67.0401 4.89803 67.6541C4.89089 67.712 4.88816 67.7703 4.88988 67.8286C4.88173 68.0234 4.97138 68.1141 5.16932 68.1083C5.41208 68.1007 5.65427 68.1024 5.89703 68.1019C6.55663 68.1019 7.21681 68.1019 7.87641 68.1019C8.01905 68.1019 8.21116 68.1065 8.18264 67.8925C8.12442 67.4518 8.04292 67.0133 7.95675 66.5766C7.84323 66.0004 7.71049 65.4276 7.59697 64.8513C7.4718 64.221 7.35945 63.5883 7.24068 62.9569C7.23719 62.9377 7.22555 62.9208 7.22147 62.8987C7.0835 62.1817 6.95076 61.4642 6.80697 60.7472C6.73128 60.3762 6.63755 60.007 6.55256 59.6365L6.55314 59.6348Z" fill="white"/>
<path d="M82.8688 76.823C82.0254 76.823 81.1815 76.823 80.3369 76.823C79.9905 76.823 79.9509 76.7829 79.9445 76.4427C79.9486 76.3846 79.9486 76.3264 79.9445 76.2683C79.8555 75.7316 80.0872 75.3315 80.4539 74.9634C81.0763 74.3389 80.9727 73.5748 80.8201 72.8119C80.8056 72.7363 80.7648 72.6654 80.7532 72.5898C80.6495 71.892 80.5384 71.1989 80.4539 70.5005C80.4074 70.1156 80.3195 70.015 79.9253 70.0155C78.761 70.0155 77.5966 70.0219 76.4323 70.0155C76.2053 70.0155 76.1005 70.0871 76.0591 70.3144C75.9427 70.9575 75.7768 71.5937 75.6848 72.2391C75.5992 72.8513 75.5504 73.468 75.5387 74.086C75.5311 74.454 75.7331 74.7663 76.0225 75.0012C76.5313 75.4141 76.7409 76.052 76.5383 76.6619C76.5149 76.7049 76.4816 76.7415 76.441 76.7689C76.4005 76.7962 76.354 76.8134 76.3054 76.8189C74.9963 76.8279 73.6868 76.8279 72.3769 76.8189C72.176 76.8189 72.0584 76.7434 72.098 76.4916C72.1464 76.1799 72.1231 75.8572 72.1685 75.5443C72.1877 75.4141 72.3018 75.2966 72.3763 75.1762C72.551 74.8919 72.7501 74.6192 72.9003 74.3226C73.0552 74.0383 73.1756 73.7365 73.2589 73.4236C73.4178 72.7491 73.5325 72.0641 73.6664 71.3838C73.7828 70.7872 73.9063 70.1917 74.0157 69.5945C74.1321 68.9683 74.2334 68.3397 74.3528 67.714C74.3988 67.4715 74.4762 67.2343 74.5414 66.9953C74.5565 66.9371 74.5845 66.886 74.5944 66.8296C74.6916 66.2609 74.7801 65.6904 74.8855 65.1229C75.0019 64.478 75.1341 63.8361 75.2586 63.1929C75.286 63.0505 75.3064 62.9063 75.3332 62.7638C75.4758 62.016 75.6242 61.2688 75.7616 60.5204C75.7896 60.3686 75.7809 60.2105 75.8111 60.0599C75.8466 59.8854 75.9037 59.711 75.9561 59.5365C75.9782 59.4633 76.0277 59.3964 76.0405 59.3225C76.1435 58.7131 76.2315 58.1014 76.3421 57.4926C76.4585 56.8564 76.5858 56.2222 76.724 55.59C76.813 55.1829 76.8194 54.7864 76.6658 54.3927C76.4108 53.7496 76.7001 53.4681 77.2712 53.2687C77.6147 53.1483 77.957 53.025 78.2987 52.9012C78.5863 52.7965 78.8739 52.693 79.1586 52.5819C79.2487 52.5491 79.3328 52.502 79.4078 52.4424C79.6459 52.2429 79.9899 52.1807 80.2414 52.3365C80.3287 52.4056 80.3873 52.5044 80.4062 52.6139C80.596 53.5798 80.7701 54.5491 80.9575 55.5155C81.11 56.3 81.2672 57.0856 81.4378 57.8648C81.5379 58.3247 81.6852 58.7742 81.7807 59.2347C81.9204 59.9046 82.0293 60.5803 82.1562 61.2531C82.2476 61.7351 82.346 62.2166 82.4473 62.6975C82.5794 63.3371 82.7122 63.9814 82.8548 64.6217C82.9712 65.1572 83.1051 65.6887 83.2169 66.2254C83.3584 66.9052 83.4795 67.5896 83.6198 68.2699C83.7362 68.8252 83.8655 69.3747 83.9889 69.9306C83.9999 69.9777 84.0098 70.0254 84.0203 70.0725C84.2002 70.8599 84.3842 71.6466 84.5588 72.4357C84.6502 72.8497 84.7247 73.2678 84.8068 73.6836C84.9367 74.3453 85.2726 74.8995 85.6853 75.4205C85.7564 75.522 85.7981 75.6411 85.8058 75.7647C85.8262 75.9863 85.8163 76.2101 85.8163 76.4328C85.8163 76.7777 85.7767 76.8207 85.435 76.8219C84.5811 76.8219 83.7273 76.8219 82.8734 76.8219L82.8688 76.823ZM78.1264 59.6063C78.0879 59.6684 78.0562 59.7345 78.0321 59.8034C77.8528 60.7815 77.6828 61.7619 77.4965 62.7382C77.4482 62.9912 77.3254 63.2296 77.2776 63.4819C77.1437 64.1931 77.0319 64.9089 76.9103 65.6224C76.7845 66.362 76.6605 67.1017 76.5289 67.8396C76.4969 68.0204 76.5662 68.1001 76.7379 68.1007C77.6694 68.1007 78.6009 68.1048 79.5324 68.0908C79.6115 68.0908 79.76 67.9617 79.7559 67.9012C79.7314 67.5349 79.6855 67.1703 79.6185 66.8092C79.5108 66.2324 79.3711 65.6619 79.2611 65.0857C79.1219 64.3582 79.0078 63.6261 78.8669 62.8993C78.7592 62.3416 78.6201 61.7898 78.5066 61.2333C78.4059 60.7408 78.322 60.2448 78.2266 59.7517C78.2172 59.711 78.1771 59.6784 78.1264 59.6052V59.6063Z" fill="white"/>
<path d="M49.0866 73.4353C49.0866 72.427 49.0935 71.4192 49.0819 70.4115C49.079 70.1208 49.1791 69.9998 49.4708 70.0208C49.6833 70.0359 49.8975 70.0208 50.1112 70.0301C50.4826 70.0458 50.7556 70.2423 50.8517 70.6069C50.941 70.9607 51.0123 71.3188 51.0654 71.6798C51.2086 72.5776 51.3762 73.4667 52.0027 74.1802C52.3706 74.5988 52.827 74.9303 53.3527 75.0902C53.7224 75.203 54.141 75.1948 54.5345 75.178C55.6377 75.1303 56.348 74.4482 56.8312 73.5568C57.1432 72.9823 57.2125 72.295 57.1601 71.6379C57.1153 71.0744 57.0437 70.4947 56.8545 69.9667C56.6798 69.4777 56.3852 69.0142 56.0668 68.5979C55.5062 67.864 54.8949 67.168 54.2906 66.4679C53.762 65.8567 53.2013 65.2729 52.6786 64.6571C52.0481 63.9146 51.4257 63.165 50.8325 62.3934C50.3179 61.7229 49.9295 60.9769 49.5517 60.2169C49.1675 59.4458 49.012 58.6573 48.9922 57.8287C48.9793 57.3443 49.0225 56.86 49.1209 56.3854C49.2024 56.0011 49.384 55.6295 49.5604 55.276C49.7545 54.8703 49.9785 54.4796 50.2305 54.1072C50.6846 53.453 51.3023 52.9727 52.016 52.6255C52.9132 52.1894 53.8743 52.1604 54.8425 52.2418C55.2413 52.2755 55.6412 52.2784 56.0161 52.5058C56.249 52.6488 56.5669 52.7023 56.8492 52.7104C57.0239 52.7151 57.2416 52.5982 57.3778 52.4703C57.5432 52.3067 57.745 52.1845 57.9667 52.1138C58.1884 52.043 58.4237 52.0257 58.6534 52.0632C58.8315 52.0871 58.9188 52.1662 58.9183 52.3685C58.9095 54.3066 58.9107 56.2447 58.9072 58.1834C58.9072 58.5724 58.8612 58.6166 58.4729 58.6219C58.3076 58.6219 58.1428 58.6219 57.9781 58.6219C57.4727 58.6149 57.1915 58.2956 57.1124 57.7956C57.02 57.2091 56.8812 56.6308 56.6973 56.0662C56.5774 55.6999 56.3573 55.3614 56.1529 55.0288C56.0225 54.8073 55.84 54.6209 55.6212 54.4858C55.4024 54.3506 55.1539 54.2708 54.8972 54.2531C54.5985 54.224 54.2978 54.2195 53.9983 54.2398C53.2316 54.2979 52.7962 54.7805 52.5173 55.4458C52.1587 56.3005 52.2844 57.1088 52.6774 57.931C52.9586 58.5207 53.2846 59.062 53.7183 59.5482C54.1351 60.0134 54.5101 60.5216 54.9374 60.9792C55.6552 61.7474 56.4213 62.4713 57.1258 63.2517C57.7196 63.9082 58.2447 64.6263 58.8187 65.3014C59.1267 65.6631 59.4224 66.0201 59.6215 66.4644C59.9076 67.0912 60.1362 67.7426 60.3044 68.4106C60.5093 69.2387 60.4971 70.0621 60.4919 70.8924C60.4872 71.6321 60.3097 72.3403 60.0739 73.0439C59.8928 73.5806 59.699 74.1051 59.3345 74.5389C58.9701 74.9727 58.5957 75.4391 58.155 75.8037C57.1496 76.6352 55.9661 77.0143 54.6585 77.069C53.8225 77.1039 53.0226 76.9446 52.2186 76.7748C52.069 76.7434 51.9276 76.6323 51.7826 76.6247C51.4967 76.6096 51.1806 76.5712 50.9268 76.6701C50.3947 76.8777 49.8574 76.8219 49.3183 76.8236C49.0802 76.8236 49.0854 76.6358 49.0854 76.4666C49.0854 75.5552 49.0854 74.6442 49.0854 73.7336V73.4428L49.0866 73.4353Z" fill="white"/>
<path d="M66.7001 76.8178C65.6522 76.8178 64.6043 76.8114 63.5564 76.8219C63.2828 76.8219 63.1518 76.7352 63.1798 76.4544C63.1824 76.4061 63.1824 76.3578 63.1798 76.3096C63.1838 75.5972 63.3684 75.3495 64.053 75.1338C64.4297 75.0175 64.8715 74.4662 64.8966 74.0778C64.9082 73.8941 64.9129 73.7097 64.9129 73.526C64.9129 67.3816 64.9129 61.2372 64.9129 55.0928C64.9129 54.7538 64.8686 54.7015 64.5228 54.727C64.177 54.7526 63.8079 54.727 63.5 54.855C62.8741 55.1097 62.6267 55.6911 62.466 56.3087C62.374 56.6622 62.3211 57.0286 62.1994 57.3705C62.108 57.6275 61.9194 57.8461 61.6073 57.8584C61.2493 57.8729 60.8901 57.8677 60.5309 57.8671C60.337 57.8671 60.2573 57.7589 60.2573 57.5711C60.2573 55.9139 60.2561 54.2566 60.2538 52.5994C60.2538 52.372 60.3586 52.2679 60.574 52.3022C60.829 52.3429 61.0787 52.4185 61.3308 52.4604C61.605 52.5081 61.8827 52.5732 62.1586 52.5738C64.2934 52.5819 66.4283 52.5738 68.5625 52.5738C69.6395 52.5738 70.7165 52.5866 71.7936 52.5662C72.0742 52.561 72.3513 52.4435 72.6331 52.3918C72.8878 52.3399 73.1464 52.3084 73.4062 52.2976C73.6565 52.2947 73.6431 52.5058 73.6431 52.6825C73.6431 53.913 73.6431 55.1438 73.6431 56.375C73.6431 56.7623 73.6431 57.1501 73.6501 57.538C73.6553 57.7706 73.5517 57.877 73.3194 57.8706C73.0575 57.8636 72.7955 57.863 72.5335 57.8618C71.97 57.8589 71.7691 57.6432 71.655 57.0861C71.5095 56.379 71.3156 55.6772 70.8301 55.1091C70.6397 54.8858 70.4161 54.7212 70.082 54.7393C69.696 54.7602 69.3065 54.7317 68.9176 54.7241C68.5392 54.7172 68.5194 54.7358 68.5194 55.1073C68.5194 58.8971 68.5194 62.6865 68.5194 66.4754C68.5194 68.8688 68.5194 71.2626 68.5194 73.6568C68.5194 74.2557 68.9724 74.9064 69.5272 75.1187C70.082 75.3309 70.1967 75.4972 70.2007 76.0845C70.2054 76.8765 70.3474 76.8189 69.4567 76.8201C68.5346 76.8201 67.6128 76.8201 66.6914 76.8201L66.7001 76.8178Z" fill="white"/>
<path d="M24.0759 98.9196C22.4365 98.9196 20.7969 98.9196 19.1571 98.9196C18.7799 98.9196 18.7764 98.8986 18.7496 98.5282C18.7217 98.1014 18.7578 97.7194 19.0605 97.3653C19.1909 97.2123 19.2055 96.928 19.2066 96.7029C19.2183 94.7555 19.2154 92.807 19.2159 90.8596C19.2159 88.7662 19.2119 86.6728 19.2159 84.5795C19.2159 84.1474 19.1298 83.7724 18.7345 83.5276C18.6909 83.5053 18.655 83.4705 18.6314 83.4276C18.5843 83.3002 18.5069 83.1595 18.5284 83.0391C18.5412 82.9705 18.7211 82.8891 18.8276 82.8868C19.4965 82.8711 20.1666 82.8757 20.8355 82.8746C20.9904 82.8746 21.1458 82.8746 21.3013 82.8746C21.9324 82.8653 21.9259 82.8385 21.9277 83.509C21.9335 85.9594 21.8998 88.4103 21.8904 90.8613C21.8829 92.8965 21.8875 94.9317 21.8875 96.9669C21.8875 97.4362 21.9504 97.5025 22.4115 97.442C23.0006 97.3647 23.5758 97.2158 24.08 96.8937C24.5719 96.5791 24.7838 96.0796 24.7926 95.508C24.7978 95.1591 24.8188 94.8212 25.0394 94.5421C25.1302 94.4258 25.2839 94.2921 25.4126 94.2892C26.397 94.2653 26.2457 94.2258 26.2526 95.0294C26.2591 95.7853 26.2492 96.5413 26.2474 97.2972C26.2405 97.375 26.245 97.4533 26.2608 97.5298C26.2779 97.5998 26.3191 97.6616 26.3772 97.7043C26.4075 97.7211 26.503 97.6641 26.5397 97.6176C26.6404 97.4885 26.7556 97.3583 26.8104 97.2106C26.9788 96.7733 27.1223 96.3267 27.24 95.8732C27.3896 95.2451 27.4903 94.6055 27.6132 93.9717C27.7162 93.4402 27.8181 92.9087 27.9258 92.3778C28.0824 91.6027 28.2524 90.8293 28.3997 90.0519C28.5161 89.4262 28.6052 88.7947 28.7211 88.169C28.8299 87.5811 28.9586 86.9973 29.0797 86.4118C29.0989 86.357 29.1138 86.3008 29.1245 86.2437C29.1664 85.3203 29.5768 84.4376 29.4016 83.4863C29.3352 83.1293 29.5087 83.0031 29.8499 82.8961C30.3843 82.7292 30.9036 82.5135 31.4305 82.3221C31.76 82.2024 31.8211 82.2181 31.9044 82.56C32.0563 83.1857 32.1716 83.8201 32.3119 84.4481C32.451 85.0662 32.61 85.6797 32.7462 86.2984C32.8626 86.8171 32.9517 87.341 33.0594 87.8614C33.1904 88.4946 33.3301 89.1267 33.4605 89.76C33.4937 89.9205 33.5018 90.0856 33.5304 90.2473C33.5635 90.4362 33.6066 90.6235 33.6468 90.8113C33.687 90.9991 33.7225 91.1887 33.7632 91.3759C33.8214 91.6358 33.8896 91.8946 33.9542 92.1534C33.9705 92.2191 33.9967 92.2825 34.0089 92.3482C34.1909 93.3173 34.3722 94.2849 34.5527 95.251C34.6912 96.0011 34.8437 96.7489 34.9526 97.5031C35.0079 97.8927 34.9893 98.2951 34.9724 98.6905C34.9683 98.7701 34.8199 98.9085 34.7395 98.9097C33.6049 98.9231 32.4691 98.919 31.3344 98.9138C31.2672 98.9123 31.2026 98.8872 31.1522 98.8428C31.0183 98.7137 31.0975 98.0595 31.236 97.9281C31.5018 97.69 31.7519 97.435 31.9847 97.1646C32.0889 97.0261 32.1403 96.855 32.1297 96.682C32.0598 95.9511 31.9661 95.2225 31.8555 94.4968C31.8421 94.4095 31.6732 94.2839 31.5743 94.2816C30.8378 94.2665 30.1002 94.2787 29.362 94.2816C29.135 94.2816 28.9929 94.3758 28.9592 94.6096C28.8689 95.2411 28.7845 95.8737 28.6844 96.5035C28.6064 96.9919 28.767 97.3868 29.1367 97.6909C29.5064 97.995 29.3929 98.3922 29.3696 98.7661C29.3655 98.8242 29.1612 98.9149 29.0488 98.9167C28.0981 98.93 27.1474 98.926 26.1962 98.9265L24.0759 98.9196ZM30.4355 93.1047H31.1341C31.1633 93.1047 31.1924 93.1047 31.2215 93.1012C31.5626 93.0808 31.6121 92.9849 31.5213 92.6575C31.3693 92.1127 31.2448 91.5603 31.1109 91.0107C31.1015 90.9735 31.1109 90.9328 31.105 90.8944C31.0585 90.6386 31.0078 90.3833 30.9618 90.1275C30.8489 89.5012 30.7423 88.8732 30.6224 88.2481C30.5792 88.0723 30.5259 87.8991 30.4629 87.7294C30.3709 87.8975 30.2428 88.0562 30.1963 88.2353C30.12 88.5336 30.1095 88.8476 30.0472 89.15C29.9308 89.7146 29.7823 90.2734 29.6723 90.8363C29.5495 91.4701 29.461 92.1109 29.3422 92.7459C29.2968 92.9919 29.3847 93.0948 29.6217 93.0983C29.8924 93.1047 30.1625 93.1047 30.4355 93.1047Z" fill="white"/>
<path d="M20.6574 39.021C20.5759 40.1032 20.5177 41.283 20.3855 42.4547C20.3273 42.992 20.1334 43.5183 19.978 44.041C19.8226 44.5638 19.6409 45.0877 19.4488 45.5988C19.082 46.5798 18.4213 47.3398 17.5824 47.9417C16.8255 48.4848 15.9762 48.5964 15.0517 48.4894C14.2838 48.3999 13.7127 48.0277 13.1416 47.559C12.3935 46.9525 12.0122 46.1414 11.6745 45.2854C11.5912 45.0732 11.4667 44.8784 11.3933 44.6615C11.2454 44.2271 11.0661 43.7939 10.9957 43.345C10.8624 42.4966 10.7774 41.6395 10.7093 40.783C10.6498 40.1191 10.629 39.4524 10.647 38.7861C10.6871 37.6865 10.7547 36.5864 10.863 35.492C10.9241 34.8814 11.0655 34.2749 11.221 33.6795C11.3194 33.3021 11.4987 32.9433 11.6629 32.5857C11.8753 32.1234 12.0535 31.6303 12.3475 31.2233C12.6648 30.7837 13.081 30.4092 13.4856 30.0405C14.2157 29.3765 15.1256 29.2393 16.0542 29.3317C16.8523 29.4114 17.5405 29.7672 18.1418 30.3412C18.8206 30.989 19.2742 31.7664 19.6083 32.609C19.8802 33.294 20.038 34.0261 20.219 34.7442C20.5631 36.1188 20.541 37.5255 20.6574 39.021ZM17.2808 38.8984H17.2994C17.2994 37.9587 17.3058 37.0184 17.2994 36.0787C17.293 35.139 17.2633 34.2057 17.0928 33.2742C16.9763 32.627 16.9059 31.9885 16.5455 31.407C16.2247 30.8901 15.4441 30.8366 15.0808 31.0651C14.473 31.4472 14.2343 32.0676 14.1219 32.7131C13.988 33.4835 13.8891 34.2715 13.892 35.0518C13.8996 38.1401 13.7133 41.2324 14.0381 44.3155C14.1138 45.0336 14.1609 45.7477 14.6139 46.374C14.8863 46.7508 15.4871 47.0845 15.8166 46.9444C16.1345 46.8095 16.4349 46.6781 16.5938 46.3379C16.7877 45.9204 17.0357 45.5238 17.0171 45.0377C17.0222 44.9023 17.0374 44.7674 17.0625 44.6341C17.1358 44.0213 17.2569 43.409 17.2727 42.7937C17.3035 41.4964 17.2808 40.1968 17.2808 38.8984Z" fill="white"/>
<path d="M24.5737 42.8548C24.5737 43.8236 24.5847 44.7929 24.5696 45.7622C24.562 46.2321 24.771 46.5635 25.1058 46.8671C25.2708 47.02 25.4019 47.2058 25.4906 47.4125C25.5575 47.5672 25.4463 47.6864 25.2577 47.6864C23.8902 47.6864 22.5215 47.6864 21.1546 47.6817C21.0783 47.6817 20.9351 47.5916 20.9374 47.5486C20.9416 47.3637 20.9765 47.1808 21.0405 47.0072C21.0725 46.9258 21.2011 46.8717 21.2966 46.8275C21.7041 46.6356 21.8602 46.2873 21.891 45.8675C21.9067 45.6558 21.898 45.4418 21.898 45.2279C21.898 40.8969 21.8959 36.566 21.8916 32.2351C21.8916 31.9164 21.8066 31.5902 21.7123 31.2826C21.671 31.1483 21.5208 31.0297 21.3933 30.9442C21.1365 30.7697 20.9188 30.1429 21.0574 29.876C21.0935 29.8205 21.1478 29.7794 21.211 29.7597C21.2854 29.7377 21.3629 29.7279 21.4404 29.7306C22.9826 29.7306 24.5259 29.7207 26.0664 29.7353C26.3074 29.7353 26.5466 29.8475 26.7877 29.9056C26.8814 29.9283 26.9751 29.951 27.07 29.9673C28.1179 30.1452 29.0104 30.5697 29.7154 31.4146C30.2877 32.0996 30.5101 32.8858 30.6125 33.7231C30.7022 34.4968 30.6153 35.2807 30.3581 36.0159C30.1252 36.6933 29.7259 37.3022 29.1064 37.7022C28.5511 38.061 27.9794 38.4029 27.3087 38.5279C27.2022 38.5477 27.1172 38.6803 27.0223 38.7605C27.1119 38.8326 27.1905 38.935 27.293 38.9716C27.9031 39.1798 28.363 39.5746 28.7071 40.1032C29.2107 40.876 29.3964 41.7674 29.6182 42.6443C29.6723 42.856 29.7637 43.0583 29.8382 43.2653C29.8646 43.3273 29.8872 43.3908 29.9058 43.4555C30.0752 44.2463 30.2102 45.0464 30.4245 45.8245C30.5409 46.2449 30.8035 46.6223 30.9735 47.0305C31.0439 47.2031 31.0703 47.3905 31.0503 47.5759C31.0433 47.6294 30.807 47.687 30.6754 47.6893C30.0257 47.6986 29.3754 47.6922 28.7257 47.6893C28.1814 47.6846 28.0853 47.584 27.9642 47.0398C27.8426 46.5065 27.6731 45.9832 27.548 45.4517C27.4315 44.9772 27.3442 44.4969 27.2441 44.0189C27.239 43.9515 27.2251 43.8851 27.2027 43.8212C26.9192 43.2851 26.8133 42.7007 26.7114 42.1117C26.6811 41.9372 26.5822 41.7697 26.5175 41.5982C26.3656 41.1952 26.2474 40.7748 26.0553 40.3922C25.8428 39.9689 25.4731 39.6764 25.0411 39.481C24.7227 39.3368 24.5754 39.4484 24.5754 39.8084C24.5737 40.8202 24.5737 41.8378 24.5737 42.8548ZM24.7483 34.1499H24.7536C24.7536 35.0803 24.7536 36.0107 24.7536 36.9411C24.7536 37.1271 24.7798 37.2789 25.0068 37.2789C25.3264 37.2789 25.6536 37.3091 25.9633 37.2516C26.22 37.2039 26.5082 37.1033 26.6916 36.9294C27.1614 36.4846 27.5066 35.9508 27.5008 35.2617C27.4977 34.6333 27.4977 34.0045 27.5008 33.3754C27.5043 32.7904 27.3419 32.2624 26.9187 31.8501C26.6698 31.5994 26.3898 31.3815 26.0856 31.2018C25.8661 31.0773 25.5855 31.0587 25.3322 30.9959C24.863 30.8796 24.7501 30.9645 24.7501 31.4466C24.7462 32.3475 24.7456 33.2486 24.7483 34.1499Z" fill="white"/>
<path d="M68.5276 38.6948C68.5276 36.5241 68.5229 34.3534 68.534 32.1822C68.534 31.9187 68.6271 31.6588 68.6638 31.3913C68.6801 31.2721 68.7098 31.1175 68.6533 31.0308C68.4205 30.6755 68.545 30.2958 68.548 29.926C68.548 29.8597 68.6982 29.7393 68.7808 29.7376C69.5854 29.7221 70.3903 29.7221 71.1957 29.7376C71.276 29.7376 71.4105 29.8771 71.4216 29.9644C71.446 30.2053 71.446 30.448 71.4216 30.6889C71.4098 30.7822 71.3635 30.8677 71.2917 30.9285C70.9046 31.2303 70.7305 31.6129 70.7323 32.1077C70.7416 35.5288 70.7441 38.9495 70.7398 42.3698C70.7398 43.3392 70.762 44.3085 70.7317 45.2773C70.7049 46.1251 70.3242 46.8281 69.7269 47.4288C69.306 47.8559 68.7893 48.1766 68.2196 48.3644C67.9408 48.4563 67.6252 48.4301 67.3318 48.4871C66.6216 48.6249 65.9148 48.5179 65.2203 48.4156C64.6096 48.3254 64.0716 48.0085 63.5867 47.6067C63.1017 47.2049 62.8799 46.6833 62.6756 46.114C62.278 45.0092 62.2273 43.8736 62.2314 42.7181C62.2454 38.9966 62.2349 35.2751 62.2419 31.5536C62.2419 31.2465 62.1697 31.011 61.9031 30.8349C61.7284 30.7186 61.6254 29.9958 61.7598 29.833C61.8285 29.7685 61.9195 29.7333 62.0137 29.7347C63.2752 29.7294 64.5362 29.7347 65.7978 29.7347C65.9887 29.7347 66.0784 29.8254 66.0836 30.019C66.0935 30.3836 66.1052 30.736 65.7273 30.9663C65.6499 31.0134 65.6191 31.1855 65.6179 31.3C65.6097 32.1525 65.6138 33.0056 65.6144 33.8586C65.6144 37.551 65.6144 41.2435 65.6301 44.9348C65.6301 45.5058 65.7681 46.0826 66.3369 46.367C66.8271 46.6112 67.3795 46.8066 67.9012 46.4641C68.2505 46.2362 68.5188 45.8942 68.5206 45.4442C68.5287 43.1956 68.5241 40.9475 68.5241 38.6989L68.5276 38.6948Z" fill="white"/>
<path d="M32.0744 13.3507C32.0744 11.0933 32.0662 8.83541 32.0808 6.57808C32.0843 6.05881 31.8281 5.74422 31.4066 5.53547C31.1272 5.39707 31.0957 5.18658 31.0981 4.91502C31.1033 4.21723 31.048 4.25678 31.7635 4.25736C32.9668 4.25736 34.1696 4.26666 35.3729 4.25736C35.6722 4.25445 35.7805 4.3661 35.7502 4.65044C35.7373 4.78582 35.7373 4.92211 35.7502 5.05749C35.7793 5.37207 35.6815 5.58082 35.4102 5.79249C35.2053 5.95065 35.0778 6.26175 35.0097 6.52865C34.9415 6.79555 34.991 7.0863 34.991 7.36774C34.991 11.0017 34.991 14.6354 34.991 18.2689C34.991 19.2667 34.9712 20.2686 35.2507 21.2345C35.3368 21.5322 35.5418 21.8043 35.7269 22.0619C35.9231 22.3312 36.2316 22.4033 36.5495 22.4911C37.024 22.6213 37.4728 22.558 37.9182 22.4417C38.3915 22.3178 38.7443 22.0492 38.9335 21.552C39.2985 20.5919 39.3701 19.597 39.3707 18.5899C39.3707 14.704 39.367 10.8181 39.3596 6.9322C39.3596 6.62227 39.2647 6.30885 39.185 6.00531C39.1445 5.87707 39.0626 5.76584 38.9521 5.68898C38.4753 5.36509 38.579 4.8749 38.5894 4.42308C38.5894 4.36493 38.8171 4.2655 38.9387 4.26317C39.6857 4.24863 40.4326 4.25678 41.1795 4.25736C41.5288 4.25736 41.8781 4.26259 42.2274 4.25736C42.4545 4.25271 42.5278 4.344 42.5709 4.57659C42.6873 5.20809 42.2967 5.46685 41.831 5.68607C41.3303 5.91867 41.1003 6.30303 41.1015 6.85894C41.1081 10.3766 41.1093 13.8942 41.105 17.4118C41.105 18.6033 41.1737 19.7994 41.0881 20.985C41.0054 22.1207 40.5467 23.1453 39.5745 23.8233C38.7786 24.3728 37.8763 24.624 36.9017 24.6635C36.1449 24.6967 35.416 24.5693 34.6895 24.4123C34.523 24.3768 34.3879 24.2146 34.2237 24.1425C33.7347 23.9256 33.2987 23.6291 33.0181 23.1778C32.6967 22.6591 32.4231 22.1166 32.3037 21.4967C31.8869 19.3452 32.1343 17.1693 32.0674 15.0056C32.0505 14.4538 32.0674 13.9008 32.0674 13.3483L32.0744 13.3507Z" fill="white"/>
<path d="M72.4316 38.8815C72.4316 36.6236 72.427 34.3651 72.4386 32.1077C72.4386 31.8751 72.5259 31.6425 72.5964 31.4163C72.6627 31.2041 72.7082 31.039 72.4351 30.9238C72.2435 30.8482 72.0891 30.7009 72.0048 30.5131C71.9205 30.3254 71.913 30.1122 71.9839 29.919C72.0136 29.8306 72.179 29.7382 72.2855 29.7341C72.76 29.7143 73.2356 29.7277 73.7112 29.7265C75.3797 29.7219 77.0488 29.7265 78.7179 29.7021C79.2261 29.694 79.7332 29.5928 80.2397 29.5277C80.6472 29.473 80.6955 29.5096 80.6955 29.9219C80.6955 31.1043 80.6955 32.2866 80.6955 33.469C80.6955 33.8237 80.6682 33.8487 80.3142 33.8516C80.1786 33.8516 80.0423 33.8563 79.9067 33.8516C79.569 33.8429 79.3327 33.6824 79.2244 33.3649C79.1455 33.127 79.0791 32.8852 79.0253 32.6404C78.8902 32.0426 78.4693 31.7216 77.9652 31.4297C77.461 31.1378 76.9434 31.1925 76.4166 31.1715C76.1977 31.1628 76.0888 31.2402 76.0888 31.4669C76.0923 33.3176 76.0937 35.1685 76.0929 37.0196C76.0929 37.2033 76.1791 37.2841 76.3578 37.2871C76.5615 37.29 76.7653 37.3057 76.9679 37.3057C77.3754 37.3057 77.6362 37.0783 77.7742 36.5666C77.8289 36.3631 77.9343 36.2985 78.1235 36.3003C78.3273 36.3003 78.531 36.3043 78.7348 36.2968C78.9385 36.2892 79.0131 36.3846 79.0125 36.5776C79.0098 37.9147 79.0098 39.2521 79.0125 40.5899C79.0125 40.794 78.9362 40.8993 78.7214 40.8917C78.5764 40.8865 78.4303 40.8917 78.2848 40.8917C78.0199 40.887 77.8621 40.762 77.7789 40.5009C77.6292 40.0323 77.4878 39.5409 76.9592 39.3461C76.7446 39.2714 76.5192 39.2321 76.292 39.2298C76.2285 39.2298 76.1104 39.3932 76.104 39.488C76.0789 39.8369 76.0882 40.1858 76.0888 40.5347C76.0888 42.4826 76.0902 44.4304 76.0929 46.378C76.0929 46.7496 76.1272 46.7473 76.4899 46.7653C77.0322 46.791 77.5723 46.6817 78.0618 46.4472C78.605 46.192 79.094 45.8931 79.2983 45.2377C79.4148 44.8574 79.4311 44.4859 79.491 44.1091C79.5482 43.8082 79.6461 43.5165 79.7821 43.2421C79.8182 43.163 79.9952 43.1136 80.1087 43.1107C81.0507 43.0862 80.9203 43.0438 80.9238 43.8427C80.929 44.9958 80.9238 46.1495 80.9238 47.3026C80.9238 47.6724 80.9016 47.6934 80.5226 47.6934C77.7872 47.6934 75.051 47.6907 72.314 47.6852C72.2057 47.6852 72.0229 47.6236 72.0061 47.5608C71.9828 47.4532 72.0468 47.3102 72.112 47.2055C72.165 47.1218 72.268 47.0625 72.3594 47.0107C72.6348 46.8554 72.6878 46.6659 72.5888 46.3577C72.5008 46.1147 72.4502 45.8599 72.4386 45.6018C72.427 43.363 72.4316 41.1243 72.4316 38.8861V38.8815Z" fill="white"/>
<path d="M42.5627 21.727C42.5627 20.7873 42.5686 19.8476 42.5587 18.9074C42.5587 18.6556 42.6472 18.5585 42.8981 18.562C43.415 18.566 43.6054 18.6672 43.7568 19.1586C43.8732 19.5418 43.9314 19.943 44.0153 20.3367C44.1591 21.0089 44.2819 21.7113 44.8 22.2003C45.2588 22.6335 45.7897 22.9627 46.4831 22.9883C47.6009 23.0295 48.3612 22.4649 48.7675 21.538C49.0586 20.8699 49.2187 20.0942 48.9247 19.3319C48.8147 19.0469 48.7844 18.7265 48.6488 18.4596C48.448 18.0694 48.2164 17.6959 47.956 17.3426C47.623 16.8815 47.2702 16.4326 46.8976 16.0052C46.5384 15.5911 46.1256 15.2231 45.767 14.809C45.1744 14.124 44.626 13.4001 44.0205 12.7262C43.415 12.0522 43.0174 11.2503 42.6314 10.4444C42.1657 9.47214 42.1279 8.43593 42.3718 7.42065C42.5715 6.59029 42.8876 5.75702 43.5408 5.16274C43.96 4.77663 44.3855 4.39808 44.9613 4.19514C45.8864 3.86834 46.8062 3.92707 47.7388 4.04628C47.9659 4.07535 48.1813 4.22072 48.4066 4.23293C49.0604 4.26375 49.7165 4.25503 50.372 4.25619C50.7976 4.25619 50.8238 4.27364 50.8238 4.68882C50.8238 6.05532 50.8191 7.42182 50.8238 8.78773C50.8238 9.03486 50.7329 9.14244 50.4826 9.13663C50.1723 9.12674 49.8614 9.13023 49.5511 9.13663C49.2897 9.1407 49.1436 9.02789 49.0807 8.76505C48.9457 8.20217 48.8124 7.63697 48.6336 7.08688C48.3804 6.30827 47.9181 5.71515 47.0495 5.56919C46.5035 5.4779 45.9475 5.58141 45.5999 5.98031C45.147 6.49958 44.7634 7.14677 44.9997 7.87887C45.2291 8.58886 45.5068 9.29595 46.0401 9.86232C46.5227 10.3746 46.9873 10.9043 47.4606 11.4259C48.2826 12.3319 49.1157 13.2286 49.9231 14.1467C50.3039 14.5799 50.6899 15.0254 50.971 15.5219C51.2289 15.9738 51.3535 16.5023 51.5346 16.9978C51.8944 17.9834 51.775 19.0062 51.7407 20.0168C51.718 20.678 51.4682 21.2926 51.1841 21.8834C50.8669 22.5371 50.3964 23.1047 49.8125 23.5378C49.5156 23.7622 49.1774 23.9355 48.8455 24.1088C48.1454 24.465 47.3638 24.6311 46.5791 24.5903C46.004 24.5676 45.4276 24.392 44.8681 24.2274C44.4938 24.1175 44.3005 24.1431 43.9978 24.3507C43.6619 24.5833 43.3929 24.956 42.8917 24.9008C42.6408 24.8729 42.5523 24.799 42.554 24.5519C42.5622 23.6116 42.5575 22.6719 42.5575 21.7317L42.5627 21.727Z" fill="white"/>
<path d="M9.13914 23.4825C8.40211 23.4825 7.66509 23.4825 6.92689 23.4796C6.83782 23.4796 6.74875 23.4354 6.65968 23.4116C6.70217 23.322 6.72546 23.2162 6.7895 23.147C6.98511 22.9348 7.19236 22.7318 7.40253 22.5341C7.51174 22.4378 7.59682 22.3172 7.65091 22.1821C7.70501 22.047 7.72661 21.9011 7.71399 21.7561C7.66741 21.1688 7.62375 20.5803 7.54458 19.9965C7.48213 19.58 7.39484 19.1675 7.28318 18.7614C7.26265 18.7124 7.23034 18.6692 7.18912 18.6356C7.14789 18.6021 7.09902 18.5792 7.04682 18.5689C6.03792 18.5567 5.02901 18.5596 4.01953 18.5649C3.8181 18.5649 3.72844 18.7091 3.70457 18.8864C3.59396 19.6424 3.48859 20.3983 3.38205 21.1542C3.36866 21.2496 3.39195 21.3659 3.34479 21.4386C3.07117 21.8677 3.34479 22.1986 3.53807 22.5329C3.67081 22.7655 3.85827 22.9679 4.01371 23.1894C4.0533 23.2476 4.09929 23.3412 4.07716 23.3872C4.05504 23.4331 3.95142 23.4686 3.88388 23.4686C2.69043 23.4686 1.49718 23.4653 0.304114 23.4587C0.229014 23.4587 0.153913 23.4058 0.0788133 23.3773C0.111997 23.3133 0.130044 23.2325 0.180693 23.1889C0.284375 23.1078 0.393282 23.0336 0.506709 22.9667C0.856983 22.7373 1.1077 22.3842 1.20881 21.9782C1.4114 21.1862 1.55811 20.3809 1.74033 19.5831C1.86724 19.0231 2.01162 18.4672 2.14785 17.9095C2.15716 17.8717 2.17288 17.8357 2.17929 17.7979C2.28641 17.1205 2.38363 16.4419 2.50297 15.7668C2.59845 15.2254 2.72071 14.6893 2.8319 14.1508C2.84995 14.0653 2.8808 13.9827 2.89477 13.8973C2.99549 13.2885 3.07699 12.6761 3.19692 12.0702C3.31336 11.4963 3.47287 10.9317 3.59804 10.3595C3.68071 9.98269 3.73601 9.60007 3.80296 9.21978C3.9194 8.56386 4.03389 7.90794 4.14644 7.25202C4.17264 7.09967 4.16449 6.93453 4.22271 6.79614C4.37116 6.44085 4.34962 6.11172 4.20466 5.75702C4.01953 5.30287 4.26288 4.98422 4.83224 4.80047C5.21182 4.67835 5.57218 4.49693 5.94361 4.34923C6.22945 4.23293 6.5153 4.11664 6.80988 4.03C7.0637 3.95382 7.21449 4.05325 7.30181 4.3283C7.55214 5.12145 7.70933 5.93088 7.83741 6.75078C7.92823 7.32064 8.09997 7.87712 8.21582 8.44407C8.32585 8.98253 8.3992 9.52855 8.50982 10.067C8.62334 10.6229 8.76131 11.1718 8.88997 11.7254C8.90744 11.8004 8.94062 11.8725 8.9546 11.9487C9.06113 12.5162 9.1537 13.0867 9.2713 13.6519C9.39239 14.2334 9.54259 14.8149 9.66892 15.3963C9.76672 15.8487 9.85114 16.3035 9.93381 16.7588C10.0386 17.3362 10.1195 17.9217 10.2394 18.4934C10.3373 18.9626 10.4909 19.4202 10.5946 19.8889C10.7215 20.4646 10.8368 21.0443 10.9299 21.6264C11.0166 22.1643 11.2908 22.6149 11.5458 23.0755C11.5971 23.1685 11.6116 23.2825 11.6436 23.3866C11.5464 23.4145 11.4492 23.4651 11.3526 23.4662C10.6149 23.4726 9.87792 23.4697 9.14031 23.4697L9.13914 23.4825ZM5.52211 9.68788H5.43712C5.40112 9.77825 5.37117 9.87091 5.34746 9.96525C5.23743 10.5525 5.14312 11.1428 5.02319 11.7283C4.90676 12.3028 4.75947 12.8715 4.63605 13.4449C4.58948 13.6618 4.57783 13.8856 4.53766 14.1043C4.40202 14.8457 4.26695 15.5871 4.11792 16.3256C4.06901 16.5704 4.17031 16.6448 4.38804 16.6448C5.10586 16.6448 5.82368 16.6448 6.54208 16.6495C6.76854 16.6495 6.86867 16.5576 6.82443 16.3296C6.75806 15.9889 6.68529 15.6487 6.62533 15.3068C6.51297 14.6701 6.42215 14.0275 6.29524 13.3949C6.18812 12.857 6.02686 12.3302 5.91857 11.7929C5.79399 11.1788 5.702 10.5584 5.59314 9.9414C5.57381 9.85574 5.55011 9.77112 5.52211 9.68788Z" fill="white"/>
<path d="M61.2458 42.9321C61.2458 43.6491 61.2627 44.3667 61.24 45.0836C61.2266 45.5134 61.3942 45.8646 61.577 46.2332C61.8879 46.8583 61.7709 47.4398 61.0956 47.6998C60.7672 47.8259 60.4698 48.0382 60.1373 48.1481C59.7342 48.2833 59.3189 48.3791 58.8973 48.4342C58.0607 48.5406 57.2189 48.5871 56.3788 48.451C55.9428 48.3801 55.5522 48.201 55.1516 48.0114C54.5823 47.7416 54.1247 47.3578 53.7142 46.9066C53.2726 46.4302 52.9384 45.8647 52.7344 45.2482C52.6337 44.9383 52.5016 44.6371 52.3851 44.3318C52.3626 44.289 52.3431 44.2447 52.3269 44.1992C52.1919 43.5945 52.0358 42.9932 51.9305 42.3838C51.5957 40.4503 51.7273 38.4983 51.7971 36.5573C51.8228 35.8426 51.9165 35.0966 52.214 34.4058C52.3461 34.0993 52.4073 33.7609 52.4893 33.4341C52.6692 32.7154 53.0133 32.0723 53.3894 31.4425C53.7793 30.7804 54.3292 30.2265 54.9886 29.8312C55.7868 29.3619 56.688 29.1468 57.6346 29.4149C58.0287 29.5265 58.4193 29.6684 58.8216 29.7271C59.1616 29.7765 59.5156 29.7236 59.8637 29.7196C60.2119 29.7155 60.2509 29.7539 60.252 30.0975C60.2543 31.2217 60.2543 32.346 60.252 33.4702C60.252 33.6237 60.3102 33.8411 60.0599 33.8534C59.6774 33.872 59.4544 33.8912 59.3502 33.615C59.1587 33.1067 59.0009 32.5811 58.7681 32.0949C58.5987 31.746 58.3728 31.3902 58.0794 31.15C57.4902 30.668 56.3224 30.8447 55.8671 31.6449C55.4328 32.4136 55.3647 33.2562 55.2209 34.0871C55.1505 34.4942 55.1848 34.9181 55.1534 35.3332C55.0192 37.0189 54.9761 38.7106 55.0241 40.4009C55.0521 41.258 55.1033 42.1175 55.2075 42.9682C55.2919 43.6543 55.4683 44.3295 55.6115 45.008C55.6529 45.2034 55.7233 45.393 55.778 45.5855C55.9253 46.0995 56.3433 46.3711 56.7386 46.6653C56.9435 46.8176 57.4797 46.8101 57.6701 46.638C57.9361 46.3937 58.1067 46.11 58.1073 45.7268C58.1073 44.4289 58.1259 43.131 58.1341 41.8308C58.1341 41.5087 57.9187 41.2813 57.5857 41.1685C57.4337 41.1167 57.2614 41.0132 57.1811 40.8824C56.9447 40.498 57.131 40.1933 57.5793 40.1922C58.6749 40.1898 59.771 40.1887 60.8674 40.1887C61.2132 40.1887 61.2458 40.2241 61.2464 40.5765C61.2464 41.3615 61.2464 42.1464 61.2464 42.931L61.2458 42.9321Z" fill="white"/>
<path d="M74.3732 23.4377C73.791 23.4377 73.2088 23.4453 72.6267 23.4325C72.484 23.429 72.229 23.3715 72.2191 23.3162C72.197 23.1418 72.2698 22.9522 72.3065 22.769C72.3094 22.7597 72.3156 22.7516 72.3239 22.7464C73.1343 22.1782 72.9061 21.4089 72.7378 20.646C72.7151 20.5425 72.6913 20.4384 72.675 20.3338C72.5946 19.8104 72.5248 19.2871 72.4281 18.7637C72.413 18.6847 72.2785 18.5701 72.1988 18.5689C71.18 18.5567 70.1612 18.5596 69.1424 18.5637C68.9252 18.5637 68.8227 18.68 68.7931 18.9045C68.6656 19.8517 68.5229 20.7972 68.3855 21.7427C68.3273 22.1451 68.644 22.751 68.9951 22.9563C69.0911 23.0144 69.1429 23.1447 69.2151 23.2418C69.1074 23.3063 69.0003 23.425 68.8909 23.4267C67.8726 23.4453 66.8533 23.4459 65.835 23.4436C65.7727 23.4436 65.6604 23.3808 65.6604 23.3401C65.6481 23.238 65.67 23.1347 65.7227 23.0464C65.8973 22.8086 66.1413 22.6109 66.2775 22.355C66.4269 22.0549 66.5354 21.7361 66.6 21.4072C66.7333 20.8048 66.8329 20.1942 66.9417 19.5865C67.0652 18.9132 67.1804 18.2387 67.3108 17.5665C67.4011 17.1048 67.5164 16.6483 67.6118 16.1872C67.7469 15.5342 67.8808 14.8806 68.003 14.2246C68.1107 13.6466 68.1975 13.0617 68.3011 12.4854C68.4176 11.8458 68.534 11.2102 68.658 10.5746C68.7925 9.89314 68.9386 9.21338 69.0801 8.53362C69.2076 7.92073 69.3566 7.3125 69.4538 6.69437C69.4981 6.41642 69.5231 6.08323 69.4113 5.84249C69.1156 5.20286 69.4265 5.04586 69.9201 4.82024C70.4872 4.56148 71.0658 4.32772 71.6474 4.10443C71.8296 4.04434 72.021 4.01717 72.2127 4.02418C72.2573 4.03344 72.2988 4.05366 72.3336 4.083C72.3684 4.11235 72.3953 4.14989 72.4118 4.19223C72.5807 4.94526 72.7303 5.7041 72.8944 6.46003C72.9387 6.66356 73.0109 6.86068 73.0743 7.06013C73.0927 7.10461 73.1086 7.15003 73.1221 7.1962C73.3043 8.18473 73.4778 9.16977 73.6682 10.1542C73.7846 10.7404 73.9278 11.3207 74.0501 11.9057C74.1566 12.4145 74.2445 12.9268 74.351 13.435C74.3959 13.6501 74.4675 13.8595 74.5257 14.0706C74.5414 14.1287 74.5688 14.1793 74.5787 14.2357C74.68 14.805 74.769 15.3772 74.8814 15.9453C75.0077 16.5849 75.1632 17.2245 75.2889 17.8642C75.477 18.8108 75.5841 19.7802 75.8519 20.703C76.0673 21.4473 76.0795 22.2469 76.4853 22.9435C76.6919 23.2988 76.565 23.4441 76.1453 23.4418C75.5538 23.4383 74.9617 23.4418 74.3697 23.4418L74.3732 23.4377ZM70.6368 9.62915C70.571 9.73323 70.5279 9.77626 70.5151 9.82627C70.4225 10.1792 70.3201 10.531 70.2514 10.8886C70.0942 11.7027 69.9539 12.5168 69.8089 13.335C69.7368 13.742 69.6727 14.1543 69.5999 14.5637C69.4971 15.1424 69.3913 15.7208 69.2827 16.2988C69.2343 16.557 69.3449 16.6477 69.5976 16.6477C70.2758 16.639 70.9541 16.6367 71.6317 16.6477C71.8844 16.6506 71.9944 16.5564 71.963 16.3046C71.9567 16.1985 71.945 16.0927 71.928 15.9877C71.8035 15.4237 71.6678 14.8614 71.5456 14.2968C71.4291 13.7606 71.3127 13.2233 71.2184 12.6831C71.1159 12.1016 71.0437 11.5201 70.9442 10.9387C70.886 10.5787 70.8091 10.2211 70.7363 9.86349C70.7098 9.78272 70.6765 9.70432 70.6368 9.62915Z" fill="white"/>
<path d="M79.9416 94.1165C79.9416 94.9114 79.9667 95.7068 79.9311 96.5006C79.9131 96.9129 80.0557 97.2414 80.3474 97.4629C80.8131 97.8171 80.6833 98.2857 80.6752 98.7335C80.6752 98.7957 80.518 98.9079 80.4324 98.9079C79.2292 98.9207 78.0261 98.9223 76.8229 98.9126C76.7737 98.9071 76.7265 98.8901 76.685 98.863C76.6436 98.836 76.6091 98.7996 76.5842 98.7567C76.4381 98.3892 76.5971 97.8886 76.9097 97.6595C77.1425 97.4903 77.2683 97.2844 77.2677 96.9774C77.2623 92.7131 77.2623 88.4503 77.2677 84.1887C77.2677 83.9178 77.2095 83.7235 76.9248 83.588C76.5866 83.4247 76.4591 83.0374 76.5854 82.6751C76.6163 82.5856 76.7601 82.4745 76.8491 82.4739C78.1485 82.4652 79.4485 82.4571 80.7497 82.4861C81.2404 82.4972 81.7469 82.5408 82.2144 82.678C82.824 82.8577 83.4556 83.0351 83.9155 83.5375C84.1175 83.7578 84.3888 83.9253 84.5513 84.1684C84.7631 84.4762 84.9241 84.8161 85.0281 85.1749C85.2353 85.9448 85.3069 86.7229 85.109 87.5253C85.0032 87.9717 84.8347 88.4008 84.6083 88.7999C84.2922 89.3506 83.7799 89.6518 83.2321 89.9048C82.9188 90.0513 82.5917 90.1635 82.275 90.3083C82.1999 90.3432 82.1585 90.4461 82.1003 90.5176C82.1737 90.5677 82.2406 90.6339 82.3221 90.6653C83.1081 90.9439 83.6029 91.4986 83.8649 92.2755C84.0943 92.9564 84.3364 93.6338 84.539 94.3235C84.6683 94.7637 84.7201 95.2265 84.8354 95.672C84.9821 96.2377 85.1509 96.7977 85.325 97.3583C85.3626 97.4697 85.4361 97.5656 85.534 97.631C86.0049 97.9217 85.7558 98.3782 85.7925 98.7643C85.7965 98.8062 85.6376 98.9062 85.5526 98.9074C84.8354 98.9202 84.117 98.9277 83.3986 98.9074C83.2786 98.9039 83.0941 98.7765 83.0574 98.6672C82.8903 98.1671 82.7605 97.6548 82.6278 97.1443C82.4875 96.6035 82.3582 96.0598 82.2261 95.5161C82.144 95.1789 82.0648 94.841 81.9851 94.5026C81.8838 94.0723 81.8255 93.6257 81.6707 93.2152C81.4467 92.6222 81.1805 92.0461 80.8743 91.4911C80.7776 91.3166 80.5122 91.2108 80.302 91.127C80.0359 91.0206 79.9463 91.0956 79.9405 91.3852C79.9312 91.8306 79.9358 92.2767 79.9352 92.7227C79.9352 93.1878 79.9352 93.653 79.9352 94.1182L79.9416 94.1165ZM79.9346 86.7845C79.9346 87.6373 79.9346 88.4902 79.9346 89.343C79.9346 89.5175 79.9346 89.6704 80.178 89.6832C80.6644 89.7037 81.1461 89.5801 81.5624 89.3279C81.7758 89.1969 81.9542 89.0161 82.0823 88.8011C82.3875 88.2815 82.5355 87.6846 82.5084 87.0828C82.5015 86.5431 82.4626 86.0043 82.392 85.4692C82.3358 85.1399 82.2239 84.8225 82.0613 84.5306C81.9579 84.3428 81.7903 84.1984 81.5892 84.1236C81.1736 84.0041 80.7487 83.9199 80.3189 83.8718C79.9696 83.827 79.9352 83.8776 79.9346 84.2294C79.9335 85.0811 79.9335 85.9328 79.9346 86.7845Z" fill="white"/>
<path d="M65.6115 6.93453C65.6115 7.69046 65.6179 8.4464 65.6057 9.20233C65.6057 9.32968 65.5364 9.55704 65.4788 9.56344C65.3041 9.58437 65.0823 9.571 64.9385 9.47912C64.5933 9.25699 64.4821 8.87728 64.3942 8.49059C64.2195 7.73117 64.0606 6.96651 63.6542 6.28384C63.1734 5.47499 61.8932 5.44999 61.4274 6.24837C61.0444 6.90545 60.9035 7.61022 60.7492 8.34173C60.4989 9.53785 60.4715 10.745 60.4581 11.9504C60.4406 13.8775 60.4476 15.8063 60.5309 17.731C60.5693 18.6201 60.8307 19.4976 60.9559 20.3849C61.0339 20.9 61.2081 21.3959 61.4693 21.8468C61.8804 22.583 63.1728 22.7068 63.7293 22.1375C64.2859 21.5683 64.4861 20.8908 64.6113 20.168C64.6818 19.761 64.6748 19.3383 64.6695 18.9231C64.666 18.6637 64.7807 18.5742 65.0101 18.5678C65.2721 18.5625 65.5341 18.5631 65.796 18.5614C65.987 18.5614 66.0871 18.6515 66.0801 18.8452C66.065 19.5325 66.1063 20.2268 66.0219 20.9048C65.9055 21.8352 65.6662 22.7493 65.0421 23.4912C64.8419 23.7297 64.5589 23.9041 64.2987 24.0867C63.4353 24.6926 62.4427 24.763 61.4571 24.6193C60.8458 24.5298 60.284 24.2123 59.7688 23.8291C58.9416 23.2185 58.4479 22.3882 58.0747 21.4601C57.9682 21.1955 57.8028 20.9548 57.7004 20.689C57.5712 20.3569 57.4635 20.0168 57.3778 19.6709C56.8539 17.5269 56.8038 15.3417 56.8789 13.1535C56.9165 12.1406 57.0057 11.1302 57.1461 10.1263C57.2301 9.46606 57.3907 8.81781 57.6247 8.19461C58.0019 7.22237 58.3768 6.22744 59.0667 5.42324C59.4201 5.01097 59.8404 4.61206 60.3114 4.35737C60.939 4.01837 61.6585 3.83403 62.3868 3.97243C62.99 4.08582 63.5756 4.28934 64.1741 4.43297C64.3132 4.46611 64.4739 4.42831 64.6206 4.40215C64.8285 4.36493 65.0282 4.28585 65.2383 4.26492C65.5748 4.2341 65.6156 4.28469 65.6167 4.63998C65.6167 5.40521 65.6167 6.17045 65.6167 6.93569L65.6115 6.93453Z" fill="white"/>
<path d="M4.13946 42.7583C4.13946 43.7654 4.13946 44.7731 4.13946 45.782C4.13946 46.4385 4.35195 46.7444 4.9545 47.0031C5.07178 47.0481 5.17503 47.1234 5.25373 47.2212C5.31944 47.3203 5.3458 47.4404 5.32767 47.5579C5.31544 47.616 5.16175 47.6742 5.07151 47.6742C3.48024 47.6823 1.88898 47.6823 0.29771 47.6742C0.203398 47.6742 0.0299111 47.5782 0.0316576 47.5323C0.0423533 47.409 0.0942273 47.2929 0.178947 47.2026C0.270893 47.1165 0.381154 47.0523 0.50147 47.0148C0.929365 46.8595 1.19192 46.5426 1.20531 46.0902C1.22394 45.4506 1.22569 44.8109 1.22627 44.1713C1.22627 39.9846 1.22627 35.7996 1.22627 31.6164C1.22627 31.1186 1.16107 31.0477 0.687182 30.9104C0.122476 30.754 -0.0149162 30.5598 0.00604195 30.0132C0.0141923 29.7975 0.110251 29.7225 0.312264 29.726C0.525921 29.7318 0.738995 29.726 0.952652 29.726C2.66889 29.7364 4.38746 29.6899 6.10021 29.7841C6.93388 29.8295 7.74717 30.133 8.49992 30.5627C9.34872 31.0454 9.8296 31.817 10.1248 32.6753C10.4973 33.758 10.6965 34.8849 10.2499 36.0206C10.0817 36.4491 9.97048 36.9114 9.73412 37.2998C9.51988 37.6487 9.17407 37.922 8.87891 38.2221C8.77453 38.3326 8.65726 38.4302 8.52961 38.5128C7.74077 39.0013 6.84131 39.0902 5.95059 39.1821C5.46099 39.2327 4.9609 39.206 4.4678 39.192C4.21048 39.1844 4.12665 39.2821 4.12898 39.5304C4.13655 40.6056 4.13189 41.6819 4.13189 42.7565L4.13946 42.7583ZM7.28842 34.6872C7.40136 33.94 7.23311 33.2172 7.02761 32.5154C6.94145 32.2246 6.71906 31.8937 6.46348 31.7414C5.85162 31.3774 5.17921 31.1384 4.43753 31.1686C4.22212 31.1779 4.13363 31.2466 4.13538 31.453C4.1381 31.8019 4.13946 32.1508 4.13946 32.4997C4.13946 34.2054 4.13946 35.9111 4.13946 37.6168C4.13946 37.9656 4.17497 37.9796 4.52718 37.9837C4.99987 37.9826 5.47012 37.9159 5.92439 37.7854C6.29989 37.6854 6.59738 37.5191 6.78077 37.2039C7.09456 36.6649 7.29541 36.0816 7.28842 35.4443C7.28318 35.1885 7.28667 34.939 7.28667 34.6872H7.28842Z" fill="white"/>
<path d="M50.0768 90.6345C50.0768 88.59 50.0739 86.5455 50.0809 84.501C50.0924 84.1608 49.9754 83.8287 49.7531 83.5706C49.6443 83.4409 49.6245 83.1932 49.6553 83.0141C49.667 82.9443 49.926 82.881 50.0751 82.8757C51.169 82.8362 52.264 82.7937 53.3585 82.7891C53.9977 82.7851 54.6365 82.822 55.271 82.8996C55.5324 82.9321 55.7745 83.1229 56.0231 83.2485C56.1715 83.3148 56.3139 83.3938 56.4487 83.4845C57.0018 83.8957 57.3441 84.433 57.6322 85.0732C57.9588 85.8006 57.8651 86.5153 57.8459 87.2328C57.8372 87.6149 57.6223 87.9946 57.485 88.3696C57.4205 88.5206 57.3438 88.6661 57.2556 88.8046C56.9563 89.3349 56.4551 89.6303 55.9393 89.8931C55.6767 90.0269 55.3763 90.0839 55.0981 90.1879C54.9896 90.2283 54.8891 90.2873 54.8011 90.3624C54.648 90.4944 54.6929 90.5985 54.8774 90.6438C55.4817 90.7904 55.8671 91.2003 56.1966 91.6957C56.5692 92.2511 56.7741 92.8587 56.9092 93.5082C57.1199 94.5276 57.3749 95.5382 57.6392 96.5459C57.719 96.8495 57.9431 97.121 57.9973 97.4257C58.0753 97.8636 58.0648 98.3189 58.0735 98.7666C58.0735 98.8114 57.9501 98.8975 57.8826 98.8986C57.2236 98.9108 56.5634 98.9172 55.9032 98.8986C55.8211 98.8986 55.6948 98.7661 55.6703 98.6736C55.5283 98.1537 55.4148 97.6269 55.2844 97.1036C55.0748 96.2662 54.8547 95.4318 54.6486 94.5939C54.492 93.9542 54.3872 93.3041 54.1916 92.6796C53.9873 92.0283 53.4825 91.5876 52.937 91.205C52.9097 91.1864 52.7897 91.2387 52.7711 91.2823C52.7472 91.3658 52.7395 91.453 52.7484 91.5393C52.7484 93.2349 52.742 94.9306 52.7571 96.6262C52.7571 96.8663 52.8736 97.1042 52.9161 97.3466C52.9417 97.4908 52.99 97.681 52.9236 97.7828C52.7571 98.0386 52.7327 98.3061 52.749 98.5887C52.7606 98.8213 52.6663 98.9184 52.4253 98.9155C51.5916 98.905 50.7574 98.9056 49.922 98.9097C49.6984 98.9097 49.5989 98.8242 49.6163 98.5974C49.6217 98.4811 49.6186 98.3644 49.607 98.2485C49.5896 98.0031 49.5954 97.7833 49.8073 97.5891C50.0279 97.3873 50.0844 97.103 50.0832 96.7936C50.0728 94.7427 50.0768 92.6883 50.0768 90.6345ZM52.7484 86.7438C52.7484 87.6067 52.7484 88.4691 52.7484 89.3314C52.7484 89.4745 52.7286 89.646 52.9376 89.6646C53.394 89.7059 53.8254 89.6198 54.2015 89.3477C54.684 88.9935 55.0068 88.4633 55.0998 87.8725C55.2436 86.9799 55.3007 86.0786 54.9834 85.1616C54.6661 84.2446 53.9884 83.9404 53.1292 83.8666C52.7892 83.8381 52.7502 83.8898 52.7496 84.244C52.7467 85.0801 52.7507 85.9105 52.7507 86.7438H52.7484Z" fill="white"/>
<path d="M3.50431 82.8501C3.96015 82.8501 4.41832 82.8775 4.87125 82.8432C5.40535 82.8085 5.93893 82.9184 6.41575 83.1612C7.18479 83.5456 7.92939 84.0149 8.3014 84.8749C8.49817 85.3319 8.76015 85.7605 8.95634 86.2175C9.077 86.502 9.16055 86.8009 9.20493 87.1066C9.31787 87.8812 9.45992 88.6586 9.48088 89.4372C9.51697 90.8003 9.56005 92.1702 9.28702 93.5199C9.18746 94.0106 9.17058 94.5311 8.99011 94.9905C8.72406 95.6754 8.4516 96.3633 7.96257 96.9518C7.60454 97.3827 7.22438 97.7612 6.74875 98.0473C5.79341 98.6213 4.73618 98.8678 3.63995 98.9056C2.54373 98.9434 1.4277 98.9056 0.321579 98.9103C0.0764846 98.9103 0.000802494 98.8213 0.000220323 98.5875C0.000220323 97.9409 0.0147746 97.9142 0.588795 97.6572C0.996315 97.4763 1.22278 97.1617 1.22336 96.7041C1.22336 95.1147 1.22336 93.5253 1.22336 91.9359C1.22336 89.4161 1.222 86.8975 1.21929 84.38C1.21394 84.1788 1.1764 83.9798 1.10809 83.7904C0.996315 83.4659 1.2449 83.2287 1.29264 82.9438C1.29904 82.9036 1.4801 82.8728 1.58373 82.8717C2.22411 82.8653 2.8645 82.8682 3.50489 82.8682L3.50431 82.8501ZM3.66732 90.5729C3.66732 92.6453 3.66732 94.7179 3.66732 96.7907C3.66643 96.9267 3.67382 97.0627 3.68944 97.1978C3.71214 97.381 3.80587 97.4845 4.00614 97.4251C4.23901 97.3559 4.46023 97.2559 4.69485 97.2141C5.02307 97.1614 5.32908 97.0152 5.57611 96.793C5.82314 96.5708 6.00068 96.2821 6.0874 95.9615C6.35236 95.0727 6.50759 94.1549 6.54964 93.2285C6.61718 91.3719 6.56828 89.5105 6.56478 87.6515C6.56185 87.5259 6.55076 87.4006 6.5316 87.2764C6.47338 86.856 6.41516 86.4356 6.35113 86.0163C6.26729 85.4843 6.06877 84.9854 5.72296 84.5824C5.30205 84.0928 4.73327 83.8683 4.07484 83.8747C3.67663 83.8782 3.66441 83.8747 3.66441 84.2707L3.66732 90.5729Z" fill="white"/>
<path d="M63.4085 82.1146C63.543 82.1925 63.6694 82.3053 63.8161 82.3425C64.7865 82.592 65.4223 83.2287 65.8752 84.0823C66.1081 84.5225 66.3526 84.9586 66.5616 85.4104C66.6646 85.6337 66.7089 85.8873 66.7613 86.1315C66.869 86.6298 66.9994 87.127 67.0564 87.6317C67.1857 88.7755 67.3353 89.9239 67.2462 91.077C67.1595 92.2028 67.0518 93.3291 66.8806 94.4444C66.7822 95.0841 66.547 95.7045 66.3567 96.3285C66.3107 96.4796 66.1867 96.6052 66.1151 96.7506C65.7797 97.4339 65.3099 97.9816 64.7004 98.4602C63.9168 99.0748 63.0796 99.0417 62.1837 98.9475C61.2522 98.851 60.6753 98.2276 60.1507 97.5903C59.7857 97.1466 59.5854 96.564 59.3357 96.0313C59.2064 95.7447 59.1024 95.4474 59.0248 95.1428C58.9174 94.763 58.8338 94.377 58.7745 93.9868C58.6831 93.3187 58.6289 92.6453 58.555 91.9749C58.4223 90.7671 58.5317 89.5588 58.5975 88.3551C58.6365 87.6404 58.8158 86.9264 58.9963 86.228C59.1471 85.6465 59.3351 85.0615 59.6058 84.5283C60.0424 83.6689 60.6095 82.8943 61.5305 82.4745C61.7313 82.3832 61.9432 82.2855 62.1575 82.2628C62.4276 82.2343 62.5242 82.0337 62.6628 81.8715C63.0559 81.4098 63.4441 80.9446 63.8271 80.4759C64.0152 80.2433 64.1706 79.9846 64.3662 79.7595C64.5407 79.5542 64.7357 79.3674 64.9484 79.2019C65.2197 78.9955 65.5888 78.9757 65.7634 79.117C65.9963 79.3077 66.0435 79.7124 65.9247 80.0474C65.7105 80.651 65.1335 80.8324 64.6812 81.1522C64.2638 81.4493 63.826 81.7174 63.3975 81.9983L63.4085 82.1146ZM61.2615 90.6473C61.2731 92.3005 61.2033 93.956 61.4635 95.6028C61.5607 96.2244 61.6824 96.7983 62.1138 97.2891C62.5167 97.7467 63.2816 97.7543 63.7014 97.3106C64.1735 96.8099 64.2836 96.1767 64.372 95.5557C64.576 94.2159 64.6625 92.8609 64.6305 91.5062C64.5781 89.7385 64.747 87.9591 64.4157 86.2053C64.3138 85.6669 64.2603 85.1168 64.1246 84.587C64.0546 84.3255 63.909 84.0903 63.706 83.9108C62.9155 83.2537 62.0434 83.7561 61.7267 84.5975C61.3686 85.5459 61.3552 86.5746 61.2796 87.5701C61.2015 88.5888 61.2615 89.6198 61.2615 90.6462V90.6473Z" fill="white"/>
<path d="M91.0116 47.6765C90.5074 47.6765 90.0027 47.6817 89.498 47.6713C89.4048 47.6713 89.2447 47.6172 89.2354 47.566C89.2209 47.4471 89.2476 47.3269 89.3111 47.2253C89.3722 47.1259 89.4667 47.0515 89.5777 47.0153C90.1098 46.8927 90.2973 46.4496 90.4108 46.0268C90.6268 45.2203 90.7601 44.3911 90.9214 43.5706C91.0058 43.1461 91.025 42.6984 91.174 42.2989C91.5385 41.3214 91.5618 40.2782 91.8232 39.281C92.0083 38.5733 92.0799 37.8366 92.2051 37.1132C92.3331 36.3729 92.4566 35.6321 92.598 34.8942C92.6737 34.4988 92.7907 34.1115 92.8763 33.7185C93.0032 33.1341 93.1453 32.5514 93.2256 31.9606C93.267 31.6288 93.2534 31.2925 93.1854 30.9651C93.1202 30.6342 93.2204 30.3691 93.5347 30.2429C94.0762 30.026 94.6112 29.794 95.1503 29.5713C95.2574 29.5263 95.3675 29.4888 95.4798 29.4591C95.8559 29.3631 95.9758 29.4282 96.0573 29.8045C96.2057 30.4912 96.3292 31.1837 96.4846 31.8693C96.6144 32.4398 96.7833 33.0015 96.9183 33.5713C97.0313 34.0493 97.1221 34.5331 97.2187 35.0152C97.3456 35.6474 97.47 36.2803 97.5919 36.9137C97.7083 37.5208 97.8044 38.1314 97.9342 38.735C98.0594 39.3164 98.216 39.891 98.3592 40.4684C98.3685 40.5056 98.3831 40.5422 98.3912 40.58C98.4838 41.0214 98.5798 41.4621 98.666 41.9046C98.8156 42.6705 98.9711 43.4351 99.0997 44.2044C99.2162 44.8877 99.2913 45.5773 99.3978 46.2623C99.4251 46.4403 99.5061 46.6112 99.5556 46.7857C99.5896 46.8968 99.6133 47.0109 99.6266 47.1264C99.672 47.6044 99.5922 47.6893 99.1119 47.6893C98.1909 47.6893 97.2696 47.6893 96.3478 47.6893C96.0363 47.6893 95.9548 47.6143 96.0183 47.3055C96.055 47.1247 96.1807 46.963 96.257 46.7886C96.3332 46.6141 96.4677 46.4211 96.4648 46.2385C96.4519 45.8058 96.4082 45.3746 96.3338 44.9482C96.2494 44.4248 96.1202 43.9085 96.034 43.3851C95.9997 43.1752 95.9374 43.0833 95.7068 43.0868C94.8534 43.1008 93.9999 43.1002 93.1453 43.0926C92.9299 43.0926 92.796 43.1653 92.7209 43.3659C92.6912 43.4473 92.6312 43.5247 92.6248 43.6072C92.5491 44.5301 92.2132 45.4279 92.3395 46.3658C92.3681 46.5763 92.5334 46.7694 92.6417 46.9677C92.6999 47.0758 92.7989 47.17 92.8297 47.284C92.9077 47.5701 92.8158 47.6835 92.5194 47.6864C92.0153 47.6916 91.5105 47.6864 91.0058 47.6864L91.0116 47.6765ZM94.4575 35.0931L94.3562 35.0815C94.2625 35.31 94.1268 35.531 94.0831 35.7688C93.8858 36.8312 93.7152 37.8988 93.5347 38.967C93.5248 39.0251 93.5132 39.0833 93.5016 39.1379C93.3694 39.7904 93.2384 40.4422 93.1045 41.0941C93.062 41.3028 93.1371 41.4133 93.3548 41.4133C94.0146 41.4133 94.6744 41.4133 95.3342 41.4133C95.5432 41.4133 95.6323 41.3191 95.5898 41.0999C95.4565 40.4108 95.3313 39.7206 95.2032 39.0304C95.2032 39.021 95.1974 39.0117 95.1951 39.0024C95.0658 38.4093 94.9197 37.8197 94.8126 37.2225C94.7002 36.5968 94.6269 35.9636 94.5326 35.3338C94.5142 35.2517 94.4891 35.1711 94.4575 35.0931Z" fill="white"/>
<path d="M81.6846 45.4988C81.6846 44.7144 81.6846 43.9288 81.6846 43.145C81.6846 42.7961 81.7306 42.7618 82.0747 42.7873C82.6301 42.8275 82.7395 42.9717 82.9253 43.4851C83.0778 43.9067 83.0557 44.3393 83.1506 44.7563C83.2833 45.3378 83.4562 45.9425 83.9155 46.3536C84.6543 47.0142 85.6556 47.3102 86.6046 46.7025C87.3142 46.2478 87.6659 45.5326 87.7363 44.6836C87.805 43.8555 87.5989 43.0839 87.2124 42.3716C87.0092 41.9954 86.6977 41.6738 86.4189 41.3429C86.0346 40.8851 85.6421 40.435 85.2411 39.9927C84.7865 39.4921 84.2776 39.0344 83.8649 38.5018C83.1931 37.6359 82.4624 36.8044 81.9868 35.8019C81.8599 35.5339 81.7807 35.2431 81.6812 34.9617C81.6043 34.7442 81.4815 34.5291 81.4628 34.3063C81.4285 33.8853 81.3866 33.4452 81.4716 33.0387C81.6007 32.4665 81.7832 31.9076 82.0165 31.3692C82.2418 30.8279 82.6569 30.4389 83.1267 30.0714C83.9237 29.4463 84.829 29.2794 85.7878 29.3364C86.2535 29.3649 86.7134 29.5242 87.1768 29.6207C87.3729 29.6702 87.5723 29.705 87.7736 29.7248C88.1124 29.7422 88.4524 29.7289 88.7918 29.7312C89.158 29.7312 89.1929 29.7684 89.1929 30.1278C89.1929 31.2322 89.1929 32.337 89.1929 33.4422C89.1929 33.8452 89.1667 33.8685 88.7627 33.8726C88.666 33.8726 88.5688 33.8726 88.4716 33.8726C87.8388 33.8609 87.8528 33.8569 87.688 33.2445C87.5716 32.8014 87.4551 32.3444 87.2525 31.9379C86.9155 31.2698 86.3868 30.7872 85.5823 30.8052C85.3833 30.8059 85.1866 30.848 85.0047 30.9287C84.8228 31.0093 84.6596 31.1269 84.5256 31.2739C83.9586 31.8885 83.8765 32.6258 84.1071 33.3486C84.2771 33.8836 84.6159 34.3895 84.971 34.8355C85.4443 35.4309 86.0189 35.9473 86.5277 36.5137C87.192 37.2498 87.8434 37.9988 88.492 38.7495C88.7727 39.0674 89.0371 39.3993 89.2843 39.7438C89.516 40.0692 89.7212 40.4126 89.8979 40.7707C90.0168 41.0343 90.0999 41.3126 90.1448 41.5982C90.3153 42.542 90.43 43.4799 90.2344 44.4475C90.1069 45.0825 89.8479 45.6361 89.5672 46.203C89.1982 46.9496 88.5909 47.4439 87.9115 47.8585C87.3321 48.2155 86.6706 48.4177 85.9904 48.4458C85.2272 48.479 84.4721 48.4162 83.7595 48.1673C83.4102 48.0452 83.1232 48.1144 82.8065 48.1783C82.5708 48.2335 82.3324 48.2762 82.0922 48.3063C81.7673 48.3371 81.6899 48.2638 81.6846 47.9364C81.6788 47.1223 81.6846 46.3083 81.6846 45.4942V45.4988Z" fill="white"/>
<path d="M13.9566 98.9196H10.3471C9.99435 98.9196 9.97514 98.8887 9.95826 98.5393C9.93963 98.1421 9.97398 97.8083 10.4007 97.5926C10.7157 97.4333 10.6807 97.039 10.4124 96.714C10.3116 96.5919 10.2156 96.4192 10.215 96.2691C10.201 92.7802 10.1954 89.2913 10.1981 85.8024C10.1981 85.3854 10.1876 84.9679 10.2109 84.5522C10.2288 84.3544 10.2773 84.1606 10.3547 83.9776C10.4193 83.8125 10.3867 83.7125 10.2295 83.6555C9.83193 83.5119 9.69512 83.2304 9.72481 82.8193C9.7446 82.5478 9.84124 82.4507 10.1184 82.4524C11.7096 82.4629 13.3009 82.4642 14.8922 82.4565C15.4056 82.4565 15.9203 82.4315 16.4326 82.3983C16.6788 82.3815 16.7697 82.4716 16.7691 82.7059C16.7662 83.559 16.7755 84.412 16.7603 85.2645C16.7603 85.3645 16.6439 85.5314 16.5601 85.5465C16.3755 85.5802 16.1758 85.5593 16.0839 85.3221C15.9738 85.0371 15.8661 84.7446 15.7078 84.4859C15.4883 84.1271 15.1186 83.9532 14.7181 83.8986C14.3833 83.8532 14.0399 83.873 13.701 83.8579C13.4816 83.848 13.3896 83.9311 13.3902 84.1637C13.3983 85.8692 13.3954 87.5747 13.3966 89.2808C13.3966 89.6559 13.4589 89.71 13.8204 89.6559C14.3525 89.5762 14.7309 89.1325 14.8427 88.5022C14.8789 88.2949 14.9541 88.0964 15.0645 87.9172C15.118 87.8335 15.2933 87.7916 15.4091 87.8009C15.4604 87.8009 15.5401 87.9754 15.5407 88.0713C15.5492 89.4669 15.5492 90.8625 15.5407 92.258C15.5407 92.365 15.4243 92.5639 15.3736 92.5593C15.2391 92.5459 15.054 92.4813 14.9964 92.3778C14.852 92.1185 14.7751 91.8225 14.6552 91.548C14.4736 91.1317 14.1249 90.952 13.6911 90.9084C13.4897 90.8892 13.3884 90.9666 13.389 91.1887C13.3966 93.1367 13.396 95.0847 13.4012 97.0326C13.4012 97.4292 13.4845 97.5042 13.867 97.4467C14.4305 97.3623 14.9935 97.2617 15.497 96.9733C15.9721 96.7012 16.2253 96.2837 16.3121 95.7412C16.3752 95.3337 16.4688 94.9316 16.5921 94.5381C16.6264 94.4293 16.8028 94.3212 16.9309 94.295C17.1364 94.2537 17.3553 94.2781 17.5713 94.2787C17.948 94.2787 17.9986 94.3235 17.9992 94.6898C17.9992 95.6882 17.9963 96.6867 17.9957 97.6845C17.9957 97.9851 17.9957 98.2857 18.0056 98.5858C18.0161 98.8358 17.9113 98.9277 17.661 98.9265C16.4233 98.9132 15.1885 98.9196 13.9566 98.9196Z" fill="white"/>
<path d="M43.7271 94.0351C43.7271 94.8201 43.7632 95.6051 43.7143 96.3883C43.6811 96.9222 43.8843 97.3088 44.2656 97.6095C44.6731 97.9305 44.5514 98.3578 44.5526 98.7579C44.5526 98.8097 44.3413 98.9039 44.226 98.9068C43.5856 98.9213 42.9452 98.9126 42.3048 98.9132C41.7617 98.9132 41.2185 98.9097 40.6748 98.9207C40.4349 98.9254 40.3517 98.8248 40.347 98.5922C40.3389 98.1933 40.3429 97.831 40.7545 97.5868C41.013 97.435 41.1038 97.1553 41.1038 96.8338C41.0968 92.6191 41.0968 88.4047 41.1038 84.1905C41.1038 83.9288 41.0311 83.7532 40.7772 83.6404C40.5864 83.5533 40.438 83.3943 40.3643 83.1981C40.2907 83.0019 40.2978 82.7846 40.3843 82.5937C40.418 82.5228 40.5502 82.4594 40.6369 82.4588C41.9072 82.453 43.1793 82.4239 44.4478 82.4739C45.2454 82.5047 46.0523 82.6053 46.8056 82.8932C47.1305 83.0176 47.4105 83.263 47.7051 83.463C48.4037 83.9387 48.7361 84.6685 49.0208 85.4221C49.0738 85.5622 49.072 85.7279 49.0732 85.8814C49.0767 86.5595 49.1401 87.2462 49.051 87.9126C48.9573 88.6104 48.6825 89.2849 48.1068 89.753C47.7301 90.0594 47.3336 90.3688 46.8958 90.5671C46.5093 90.7415 46.0558 90.7845 45.6261 90.8334C45.1656 90.8863 44.6982 90.8857 44.233 90.8915C43.7312 90.902 43.723 90.9026 43.723 91.3899C43.7257 92.2722 43.7271 93.1539 43.7271 94.0351ZM43.7271 86.7705C43.7271 87.6224 43.7306 88.4743 43.7271 89.3256C43.7271 89.5803 43.8086 89.7076 44.0875 89.6745C44.2685 89.6518 44.4595 89.6925 44.6382 89.6594C45.129 89.5692 45.682 89.5355 45.9504 89.0418C46.1623 88.6522 46.3352 88.2126 46.394 87.7771C46.4691 87.2258 46.4068 86.6566 46.4115 86.0954C46.4156 85.5779 46.2298 85.1133 46.0086 84.6632C45.9351 84.5203 45.8285 84.3969 45.6977 84.3033C45.2349 83.9742 44.7081 83.8538 44.1428 83.8608C43.7836 83.8648 43.7352 83.8846 43.7352 84.2457C43.7271 85.0865 43.7271 85.9291 43.7271 86.7711V86.7705Z" fill="white"/>
<path d="M97.9272 98.9196C97.4033 98.9196 96.8793 98.9138 96.3554 98.9196C96.1062 98.9236 96.0404 98.8242 96.0136 98.5759C95.9682 98.1468 96.105 97.838 96.4171 97.5531C96.8397 97.1675 96.806 96.6436 96.7443 96.1401C96.6767 95.5853 96.5789 95.0352 96.4706 94.4857C96.4537 94.3985 96.314 94.2741 96.2284 94.2723C95.4437 94.256 94.6566 94.2642 93.8724 94.2624C93.6768 94.2624 93.5947 94.3787 93.5703 94.5479C93.4794 95.1876 93.409 95.8313 93.2966 96.4668C93.2134 96.9402 93.4224 97.267 93.7426 97.5606C93.8035 97.6231 93.8728 97.6768 93.9487 97.72C94.4022 97.9421 94.3282 98.3474 94.2869 98.7271C94.2799 98.7969 94.1315 98.9015 94.0465 98.905C93.1645 98.9196 92.2819 98.9149 91.3993 98.9178C91.2031 98.9178 91.1187 98.823 91.1199 98.6312C91.1199 98.4084 91.0978 98.184 91.1199 97.9636C91.1315 97.8392 91.2043 97.7176 91.2596 97.6002C91.3859 97.3321 91.5752 97.0797 91.6386 96.7989C91.8459 95.879 92.0112 94.9498 92.1864 94.0234C92.339 93.2187 92.4775 92.4104 92.633 91.6068C92.7296 91.1177 92.8658 90.6357 92.9625 90.1467C93.0964 89.4756 93.2093 88.8005 93.3362 88.1277C93.4527 87.5108 93.5772 86.895 93.6943 86.278C93.7373 86.0501 93.7694 85.8204 93.8031 85.5913C93.8142 85.5145 93.7979 85.4308 93.8229 85.3587C94.047 84.736 94.1022 84.0651 93.983 83.4142C93.9615 83.2938 94.1076 83.0781 94.2334 83.0071C94.518 82.8501 94.8371 82.7554 95.1439 82.6396C95.4507 82.5239 95.7639 82.4262 96.0637 82.2971C96.3111 82.1902 96.4054 82.2082 96.466 82.4605C96.562 82.8624 96.6365 83.2688 96.7314 83.6712C96.8479 84.155 96.98 84.6342 97.0877 85.1197C97.2205 85.721 97.3328 86.3269 97.4574 86.9304C97.5791 87.5154 97.7054 88.0998 97.83 88.6842C97.8399 88.7313 97.8574 88.7773 97.8655 88.8244C97.972 89.432 98.0681 90.042 98.1863 90.6473C98.2684 91.0689 98.3848 91.4847 98.4774 91.9045C98.6852 92.8349 98.9018 93.7653 99.0898 94.7044C99.2226 95.3644 99.3163 96.0325 99.424 96.6971C99.4979 97.1542 99.5637 97.6019 99.8181 98.0171C99.9345 98.2061 99.8915 98.505 99.8763 98.7509C99.8723 98.8091 99.6895 98.9004 99.5852 98.9033C99.0328 98.9184 98.4791 98.9103 97.9272 98.9103V98.9196ZM95.0443 87.6579L94.89 87.6678C94.8592 87.7899 94.819 87.9108 94.7992 88.0347C94.6921 88.711 94.6088 89.3925 94.4802 90.0647C94.3055 90.9636 94.1035 91.8562 93.9114 92.7506C93.8695 92.9471 93.923 93.0931 94.1402 93.096C94.7305 93.1035 95.322 93.1035 95.9123 93.0814C95.9834 93.0814 96.1178 92.9134 96.1068 92.8413C95.9956 92.1156 95.8681 91.3922 95.7289 90.6712C95.5735 89.8681 95.4053 89.0674 95.2335 88.2679C95.191 88.0585 95.1083 87.8597 95.0443 87.6561V87.6579Z" fill="white"/>
<path d="M52.6512 14.0804C52.6512 11.726 52.6553 9.37038 52.6465 7.0171C52.6442 6.69814 52.6042 6.38058 52.5272 6.07102C52.4917 5.92797 52.349 5.78435 52.2175 5.69829C51.9508 5.52384 51.7517 5.33311 51.7587 4.98538C51.7774 4.18002 51.69 4.25503 52.4707 4.25503C53.6541 4.25503 54.8378 4.25503 56.022 4.25503C56.3666 4.25503 56.4091 4.29806 56.4126 4.63707C56.4126 4.78244 56.4062 4.92781 56.4126 5.07319C56.4208 5.28717 56.3753 5.46569 56.1856 5.60408C55.9771 5.75527 55.8945 5.97507 55.8945 6.23791C55.9003 6.93569 55.8945 7.63348 55.8945 8.33126C55.8945 12.875 55.8921 17.4191 55.8875 21.9637C55.8875 22.3597 56.0185 22.6725 56.2478 22.9755C56.3276 23.0777 56.3653 23.2064 56.3532 23.3354C56.341 23.3965 56.1535 23.4581 56.0447 23.4593C54.5698 23.4732 53.095 23.4794 51.6202 23.4779C51.5363 23.4779 51.4525 23.4197 51.3693 23.3854C51.4193 23.311 51.4537 23.215 51.5224 23.1679C51.697 23.0516 51.8874 22.9586 52.0649 22.8464C52.6361 22.4835 52.6355 21.8834 52.6436 21.3211C52.6663 19.7127 52.6518 18.1043 52.6518 16.4948L52.6512 14.0804Z" fill="white"/>
<path d="M70.7398 93.9711C70.7398 94.8236 70.755 95.6766 70.734 96.5297C70.7224 96.9948 70.9942 97.2513 71.3162 97.4973C71.3727 97.5337 71.431 97.5673 71.4908 97.5978C71.9566 97.8886 72.073 98.1828 71.9531 98.7184C71.9088 98.9167 71.7621 98.9114 71.616 98.912C70.7719 98.912 69.9277 98.912 69.0841 98.9149C68.7738 98.9149 68.463 98.9085 68.1527 98.919C67.9122 98.9265 67.8162 98.8213 67.8313 98.5881C67.8412 98.4433 67.8109 98.291 67.8453 98.1537C67.8796 98.0165 67.9408 97.8473 68.0455 97.7595C68.3471 97.5077 68.5223 97.2053 68.5223 96.8152C68.5254 92.6672 68.5254 88.5206 68.5223 84.3754C68.5223 84.2887 68.5398 84.1817 68.4973 84.1184C68.2516 83.7509 68.3931 83.3973 68.5421 83.0583C68.5811 82.9688 68.7476 82.8903 68.8594 82.8839C69.3834 82.8594 69.9073 82.8571 70.4313 82.8571C71.5153 82.8571 72.5987 82.7007 73.6827 82.8676C74.1609 82.941 74.6104 83.1419 74.9839 83.4491C75.3704 83.7642 75.7611 84.1184 76.0172 84.5365C76.3531 85.0848 76.5097 85.7256 76.5615 86.3786C76.6189 87.1227 76.5271 87.8708 76.2914 88.579C76.1168 89.118 75.7372 89.5407 75.3221 89.9164C74.4966 90.6601 73.4778 90.8601 72.4112 90.891C71.9944 90.9026 71.5776 90.8962 71.1602 90.8968C70.7579 90.8968 70.7404 90.9125 70.7398 91.3277C70.7398 92.2092 70.7398 93.0909 70.7398 93.9729V93.9711ZM70.7398 86.7339C70.7398 87.5957 70.7445 88.4574 70.7398 89.3192C70.7398 89.5774 70.8347 89.6948 71.1008 89.6803C71.4501 89.6617 71.7994 89.6704 72.1487 89.6448C72.9183 89.5867 73.4603 89.1628 73.6431 88.4505C73.9598 87.213 73.9796 85.9925 73.4458 84.7929C73.2857 84.4324 73.0196 84.2457 72.6889 84.0858C72.1784 83.8387 71.634 83.8846 71.0955 83.8532C70.8266 83.8369 70.7363 83.9445 70.7398 84.2073C70.7398 85.0487 70.734 85.8942 70.734 86.7339H70.7398Z" fill="white"/>
<path d="M89.1947 90.574C89.1947 92.5023 89.2203 94.4305 89.1789 96.3581C89.1673 96.914 89.47 97.2408 89.835 97.4519C90.3439 97.7473 90.4754 98.1258 90.4172 98.6498C90.3992 98.8289 90.3177 98.9132 90.1407 98.9132C88.948 98.9132 87.7549 98.9149 86.5615 98.9184C86.3665 98.9184 86.2949 98.826 86.2838 98.6323C86.2605 98.2183 86.2838 97.8502 86.7164 97.617C86.9417 97.4961 86.9906 97.2519 86.99 96.9873C86.9842 92.6664 86.9842 88.3454 86.99 84.0242C86.99 83.8049 86.9434 83.652 86.7065 83.5875C86.6033 83.5574 86.5127 83.4945 86.4486 83.4084C86.3746 83.302 86.3042 83.1618 86.3123 83.0414C86.3164 82.9798 86.4922 82.8821 86.5918 82.881C87.5133 82.8682 88.4349 82.8728 89.3565 82.8722C89.5792 82.8624 89.8023 82.864 90.0248 82.8769C90.1523 82.8903 90.38 82.9734 90.3782 83.0164C90.3701 83.2031 90.3334 83.4148 90.2292 83.5625C90.1453 83.6788 89.9532 83.7294 89.8036 83.7951C89.4002 83.9782 89.176 84.2393 89.1819 84.7301C89.2051 86.6787 89.1947 88.6272 89.1947 90.574Z" fill="white"/>
<path d="M40.131 0.795758C40.1188 1.51622 39.6606 1.78429 39.1995 2.05642C38.7117 2.34077 38.2215 2.62163 37.7389 2.91354C37.4431 3.09206 37.1788 3.33861 36.8656 3.46246C36.6101 3.56364 36.3009 3.54852 36.0162 3.54445C35.8532 3.54154 35.8457 3.40897 35.9452 3.29499C36.2247 2.97634 36.5082 2.66175 36.7899 2.34542C36.9815 2.13027 37.1678 1.91047 37.364 1.69997C37.8297 1.20164 38.2553 0.653293 38.7815 0.227644C39.206 -0.115434 39.6758 -0.0712411 40.0076 0.363712C40.106 0.495128 40.106 0.702138 40.131 0.795758Z" fill="white"/>
</svg>
